<svg id="Layer_1" data-name="Layer 1" xmlns="http://www.w3.org/2000/svg" viewBox="0 0 131.95 38.38"><defs><style>.cls-1{fill:#e31837;}.cls-2{fill:#b3b3b3;}.cls-3{fill:#231f20;}</style></defs><title>hyperx</title><path class="cls-1" d="M68.54,75.55h4.4L74,72l9.32-5.33,1-3.16H79.89l-.47,1.58L72.56,69l-4.33-3.75c.11-.39.52-1.74.52-1.74h-4.4l-.9,3,6.19,5.36Z" transform="translate(-39.06 -60.92)"/><path class="cls-1" d="M105.61,70.65l-1.47,4.9h19.93l1-3.18H109.9l6.66-2.8S112,67,111.35,66.67h15.39l1-3.19H107.76l-1.43,4.76s1.4.78,2.15,1.22Z" transform="translate(-39.06 -60.92)"/><polygon class="cls-1" points="7.99 2.56 3.62 2.56 0 14.63 4.37 14.63 7.99 2.56"/><path class="cls-1" d="M62.17,63.48h-4s-1.21,4-1.34,4.44h-10l-1,3.19h10c-.25.82-1.33,4.44-1.33,4.44H59l3.62-12.07Z" transform="translate(-39.06 -60.92)"/><path class="cls-1" d="M89.25,66.67H100.4c-.06.18-.25.79-.31,1l-3.74,1.57H89.62l-1,3.18h8.39l6.87-2.89,1.81-6.05H85.82L82.19,75.55h4.4Z" transform="translate(-39.06 -60.92)"/><path class="cls-1" d="M127.36,71.51l-1.21,4h4.39s.75-2.51.92-3.06C130.14,72.12,128.77,71.8,127.36,71.51Z" transform="translate(-39.06 -60.92)"/><path class="cls-1" d="M141.5,72.26l6.34-2.58,1.86-6.2H129.77l-1.9,6.34A46.72,46.72,0,0,1,141.5,72.26Zm-8.29-5.59h11.14c-.14.46-.28.93-.33,1.12l-3.42,1.45h-8.16C132.6,68.69,133.11,67,133.21,66.67Z" transform="translate(-39.06 -60.92)"/><path class="cls-2" d="M169.22,99.3c-3-8.87-7.52-15.17-12.65-19.63,4.6-4.48,7.74-10.54,8.3-18.75,0,0-1.88,8.16-12,16C138,66.68,120,69.57,120,69.57a61.26,61.26,0,0,1,29.2,9.88c-9.43,6-24.38,11.17-47.93,11.34,0,0,33.71,5.08,52.07-8.42A66.76,66.76,0,0,1,169.22,99.3Z" transform="translate(-39.06 -60.92)"/><path class="cls-3" d="M169,62.88a2,2,0,1,1,0,3.93,2,2,0,1,1,0-3.93Zm0,.4a1.56,1.56,0,0,0,0,3.12,1.49,1.49,0,0,0,1.49-1.56,1.51,1.51,0,0,0-1.5-1.56Zm-.29,2.57h-.46V63.91a3.52,3.52,0,0,1,.75-.07,1.15,1.15,0,0,1,.68.15.55.55,0,0,1,.2.42.52.52,0,0,1-.41.47v0a.57.57,0,0,1,.36.48c.06.3.09.42.14.47h-.49a1.5,1.5,0,0,1-.15-.46c0-.22-.16-.31-.41-.31h-.21Zm0-1.09h.21c.25,0,.46-.09.46-.29s-.13-.3-.42-.3a1.11,1.11,0,0,0-.25,0Z" transform="translate(-39.06 -60.92)"/></svg>