<svg id="Layer_1" data-name="Layer 1" xmlns="http://www.w3.org/2000/svg" viewBox="0 0 952.77 360.21"><defs><style>.cls-1{fill:#57686f;}.cls-2{fill:#57676e;}.cls-3{fill:#4e4f4f;}</style></defs><title>repl.it</title><path class="cls-1" d="M358.5,163.43c.49,5.44.83,10.93.83,16.5h0C359.34,174.36,359,168.87,358.5,163.43Z" transform="translate(0.24 -0.14)"/><path class="cls-2" d="M91.79,162.47s-50,184.21,150.39,185.82c62.87-23.41,109.2-80.79,116.23-150,.48-4.79.63-9.67.73-14.56,0-1.29.2-2.53.2-3.83,0-5.57-.35-11.06-.84-16.51C305.56,371.84,71.36,290.2,91.79,162.47Z" transform="translate(0.24 -0.14)"/><path class="cls-2" d="M195.4,94.1S8.85,42,11.7,245.44a180.16,180.16,0,0,0,43.48,65c.79.76,1.63,1.48,2.44,2.22a178.86,178.86,0,0,0,17.05,13.9c.92.66,1.8,1.39,2.72,2a178.9,178.9,0,0,0,19.69,11.68c2,1,4,2,6,2.9a177.09,177.09,0,0,0,18,7.3c1.5.52,2.94,1.16,4.46,1.63a176.5,176.5,0,0,0,22.37,5.3c2.28.41,4.6.74,6.92,1.06a180.49,180.49,0,0,0,23.69,1.84c.3,0,.6.05.9.05q9,0,17.7-.9C-12.23,309.51,67.36,75.42,195.4,94.1Z" transform="translate(0.24 -0.14)"/><path class="cls-2" d="M268.13,190.58S312.27,4.48,113.58,12.8A177.93,177.93,0,0,0,1.63,204.38C43.45-6.18,281.67,62,268.13,190.58Z" transform="translate(0.24 -0.14)"/><path class="cls-2" d="M172.73,270.66s186.9,24.4,175.19-153.3C322.49,49,256.81.14,179.55.14A180.08,180.08,0,0,0,147,3.24C355.21,28.8,301.09,272.48,172.73,270.66Z" transform="translate(0.24 -0.14)"/><path class="cls-3" d="M231.44,179.94a50.36,50.36,0,1,1-50.36-50.36h0A50.35,50.35,0,0,1,231.44,179.94Z" transform="translate(0.24 -0.14)"/><rect class="cls-3" x="793.15" y="198.07" width="19.53" height="19.53"/><rect class="cls-3" x="814.01" y="218.9" width="19.49" height="19.53"/><rect class="cls-3" x="793.15" y="239.72" width="19.53" height="19.53"/><path class="cls-3" d="M474.1,140.78V158H472q-18.59,0-30.28,14.9-11,14.24-11,34v50.46h-17.2V142.61h17.2v28.21q5.5-17.88,23.85-26.37,7.57-3.67,18.35-3.67Z" transform="translate(0.24 -0.14)"/><path class="cls-3" d="M540.84,243.53q23.16,0,33.26-19.27h18.81A55.34,55.34,0,0,1,574,249.49q-13,9.64-33.37,9.64-25.92,0-42.2-17.2-15.82-16.74-15.82-42,0-25.45,15.13-42,16.06-17.21,41.75-17.2T581.21,158q15.13,16.52,15.14,42v6.88h-96.1q1.83,15.82,12.62,26.15Q523.87,243.54,540.84,243.53Zm-1.37-87.16q-15.84,0-26.61,9.86-10.1,9.42-12.39,24.55h78q-2.31-15.15-12.39-24.55Q555.29,156.38,539.47,156.37Z" transform="translate(0.24 -0.14)"/><path class="cls-3" d="M634.65,161q13.76-20.18,41.05-20.18,24.78,0,40.14,17.2,15.38,17,15.37,42t-15.37,42q-15.36,17.21-41.28,17.2t-39.91-20.41v64h-17.2V142.6h17.2Zm38.76-4.59q-18.57,0-29.36,12.85Q633.73,181.37,633.73,200t10.32,30.74q10.79,12.84,29.36,12.84,18.35,0,29.82-12.84Q714,218.53,714,200t-10.78-30.73q-11.47-12.84-29.82-12.85Z" transform="translate(0.24 -0.14)"/><path class="cls-3" d="M770.89,257.29h-17.2V96.74h17.2Z" transform="translate(0.24 -0.14)"/><path class="cls-3" d="M867.45,100.87v22.48H848.87V100.87Zm-17.89,41.74h17.2V257.29h-17.2Z" transform="translate(0.24 -0.14)"/><path class="cls-3" d="M909,257.29V157.75h-23.4V142.61H909V101.55h17.2v41.06h26.38v15.14H926.16v99.54Z" transform="translate(0.24 -0.14)"/></svg>