<svg id="Layer_1" data-name="Layer 1" xmlns="http://www.w3.org/2000/svg" viewBox="0 0 4943.12 4944"><defs><style>.cls-1{fill:#fff;}</style></defs><title>tin-pot-creamery</title><path d="M888.81,2526.17c5.39,18.49,15.83,32.32,25.41,46.69,10.09,15.11,11.34,19.35,12.64,37.81-2.57,1.2-5.35,3-8.38,3.85-117.32,33.34-235.28,64.05-355.88,83.21-72.44,11.51-145.37,18.27-218.69,21.9-86,4.27-172,3.09-257.86-1.84-467.68-26.85-895.48-170.2-1278.84-441.32q-234-165.46-414.6-388.47c-33-41-66.5-81.72-101.28-121.23-104-118.18-184.88-250.82-248.23-394.42-31.73-71.92-61.73-144.6-93-216.72-18.81-43.4-38.54-86.39-57.86-129.56-1.62-3.63-3.23-7.27-4.58-10.31.48-2,.48-3.47,1.12-4.52,9.76-16.14,9.07-33.06,3.48-50.15-3.32-10.12-7.49-20-11.15-30-3.89-10.62-8.35-21.11-11.23-32-2.54-9.57-5-19.76-4.33-29.45,1.09-15.74-2.43-30.11-6.71-44.91-4-14-5.91-28.65-8.49-43.06-1.41-7.86-2.32-15.82-3.43-23.73-2.39-16.93-9.31-31.85-19.83-45.22-2.85-3.63-5.6-7.35-8.61-11.32,9.56-46.85,13.06-92.9-18.59-135.12,4.95-9.63,11.24-19.31,10.62-31-.6-11.3-1-22.63-2-33.89-1.44-15.91-3.12-31.81-5.2-47.65-2.32-17.71-8.77-33.49-24.06-44.78-1.23-12.23,3.73-22.13,10.53-31.41,4.33-5.91,8.88-11.66,13.28-17.52,3.45-4.6,4.44-9.51,2-15-9.68-21.84-11.34-45-11.44-68.49,0-4.67-.11-9.34-.34-14-.74-14.79-2.57-29.25-13.36-39.44,5.44-35.48,11.2-69.62,15.78-103.92,4.14-31,7.4-62.19,10.35-93.36,7.2-76.3,13.75-152.65,21.08-228.93,2.74-28.5,6.9-56.86,10.39-85.29,1.26-10.21,4.3-12.47,14.47-10.51,3.13.61,6.22,1.39,9.24,2.07.7-2,1.79-3.6,1.38-4.23-5.48-8.52-5.18-17.6-3-26.91,7-29.14,12.4-58.76,21.24-87.32,18.7-60.43,39.17-120.32,58.94-180.43,3.12-9.49,6.81-18.82,9.5-28.43,10.25-36.72,25.4-71.47,41.5-105.91,116-248.09,263.63-475.2,449.16-677.15,213.1-232,462-415.85,744.89-554,162.18-79.18,330.87-140.77,505.13-187.34,7.64-2,15.7-4,23.49-3.69,36.43,1.27,71.6-5.77,106.55-14.71,33.55-8.59,67-17.47,100.67-25.71,34.4-8.43,69.64-11.64,104.73-15.44,113.51-12.3,227.38-15.78,341.46-12.52,67.31,1.93,134.38,7.31,201.31,14.92q116.29,13.22,230.66,37.78a2464.61,2464.61,0,0,1,408.36,125.22q456.49,184.71,815.17,522.15a486.64,486.64,0,0,1,38.46,40.59c93,110,182.14,223,262.81,342.52,90.87,134.58,169.93,275.58,231.46,426.11,50.3,123.08,87.93,250,115,380.07q22,105.75,34.55,213c6.5,55.6,10.86,111.4,14,167.33,4,71.3,4.06,142.6,2.61,213.91-1.17,58-5.13,115.83-10.3,173.61-6,67.07-14.31,133.83-25.38,200.23C2640.25,909,2558.74,1169.13,2426.05,1412c-66.74,122.19-145.81,235.66-240.66,337.91-15.38,16.59-28.85,34.94-43.29,52.41-132.21,159.92-279.21,304.47-445.38,429.16-220.85,165.71-464.12,286.88-728,367.12-19.93,6.06-25.37,4.67-37.58-11.58a160.68,160.68,0,0,1-29.85-68c4.08-8.25,11.63-8,17.68-9.86,68.05-21.36,135.13-45.36,201.08-72.53,345.08-142.17,639.66-355,886-634.8,151.89-172.55,279.88-361.22,378.64-569.18A2352.94,2352.94,0,0,0,2563,701.62a2384.3,2384.3,0,0,0,38.34-246.76c10.15-100.23,14.75-200.77,11.85-301.52-2.32-80.63-8.11-161-18-241.16a2332.56,2332.56,0,0,0-148.76-581.1c-110.93-278.17-267.78-527.2-477.24-741.7-186.7-191.19-397.28-351-636.24-472.19q-256.43-130-538.22-187.18c-79.06-16.17-158.72-28-239-36.17-128.27-13.13-256.85-16-385.48-10.06-350,16.22-681.26,102.79-991.33,267.44-168.56,89.5-323.82,198.25-467.49,323.69-156.33,136.5-296.25,287.92-415.38,458.15Q-1961-699.62-2059.25-262.15q-25.7,115.18-39.9,232.31c-12.5,102.69-19.1,205.7-18.51,309.15.34,60,4.49,119.85,10.16,179.6,5.85,61.73,14.09,123.09,24.34,184.24A2486.92,2486.92,0,0,0-1994,1005.67c71,217.34,169.48,421.27,299.74,609.52a2012,2012,0,0,0,134.69,173.75c3,3.52,6.27,6.93,9.06,10.66,5.48,7.3,4.36,15.72-3.42,20.59-5,3.12-11.11,4.41-16.37,7.19a61.07,61.07,0,0,0-12.86,8.93c-1.42,1.31-1.77,5.26-.87,7.18s4,4.1,6.11,4a44.31,44.31,0,0,0,13.42-2.87c6.21-2.36,12-6,18.22-8.16a119.89,119.89,0,0,1,19.31-4.64c4.87-.83,9.17,1.12,12.42,5,1.72,2,3.38,4.12,5,6.2,90.08,112.59,194.52,210.24,309.28,297.1,166.87,126.31,348.81,225.68,543,303.08a2488.25,2488.25,0,0,0,467.72,135q108.12,20.1,217.73,30.06c88.38,8.09,176.89,12.18,265.61,10A2348.5,2348.5,0,0,0,533,2600.49a2210.1,2210.1,0,0,0,342-71.32C878.77,2528.06,882.72,2527.47,888.81,2526.17ZM-205.67-2150.3c-2,15.32.92,27.78,12,36.83,13.89,11.32,29.9,11.52,46.2,7.74,2.08-21.22-2.18-28.74-19.63-34.19C-179-2143.65-191.2-2146.45-205.67-2150.3ZM2645-62.67c-1.51-1.56-3.26-4.78-5.88-5.84-11.69-4.71-28.27,6.09-29.07,18.51a8.71,8.71,0,0,0,8,9.38c10.62.75,23.09-7.11,26.47-16.79C2644.87-58.59,2644.74-60,2645-62.67Z" transform="translate(2220.94 2221.75)"/><path d="M-83.21,372c27.17-8.21,54.89-9.68,83-7.09,19.2,1.77,38.44,3.13,58.6,4.75,1.3-3.36,2.8-6.18,3.48-9.19,2.38-10.6,9.7-15.38,19.61-17.29,8.62-1.67,17.32-2.23,25.62,1.09a20,20,0,0,0,15.29.46c9.94-3.5,20.27-5.89,31.32-9,.25-5.1.81-9.58.64-14-3.21-82.57-7.53-165.09-7.48-247.76,0-2.66.82-6-.45-7.87-6.78-10-3.65-19.7-.4-29.71,1-3.07.82-6.59.81-9.91q0-56-.21-111.95c0-3.28-.43-6.56-.73-10.91-4.7,6.24-3,12.48-3.51,18.24-.65,6.63-.56,13.32-1,20-.46,7.31-1.14,14.61-1.73,21.91q-.81,10-1.64,19.92c-.53,6.4-1.06,12.8-3.72,19.16-.48-7.9-1.19-15.79-1.4-23.7-.77-29.32-1.12-58.64-2.14-87.94-.55-15.93-2.51-31.8-3.12-47.73-.43-11.29.13-22.63.65-33.93s1.55-22.52,2.31-33.16l-13.41-9.57c14.08-5.48,14.08-5.48,19.82-14.69,5.11,1.67,2.43,12.49,9.88,9.85,5.92-2.1,3.13-9.37,3.57-14.34.78-9,.81-18,2.3-26.91,0,3.32-.07,6.65,0,10,1.81,72.56,3.39,145.13,5.56,217.68C159.87-1,162.2,49.55,164.17,100.15c2,51.3,2.53,102.6-.86,153.86-1.63,24.58-3.83,49.13-5.71,73.7-.2,2.6,0,5.22,0,8.48l14.29,7c-1.36,1.58-1.9,2.84-2.65,3-8.38,1.64-17.2,1.43-23.33,9.45-3.48,4.55-9.32,4.74-14.79,3.39-3-.75-5.94-1.81-10-3.06,0,3.6-.87,6.56.21,8.35,1.63,2.71,4.66,4.56,7,6.85,6.64,6.49,10.06,14.48,8.09,23.54a59.07,59.07,0,0,0,1.18,29.56,31.7,31.7,0,0,1,.88,7.92c.17,8.77-3,15.62-11.65,19-3.56,1.37-7.19,2.56-10.42,3.71-3.8-4-1.86-6.91-.32-9.79,1.78-3.33,3.66-6.61,5.74-10.35l-59.22-7.92c8.15,22.33,18.68,39.64,43.71,43.48l7.16-8.49c1.38.25,3.14,0,3.76.79,8.63,10.29,18.11,11.31,29.78,4.64,5.48-3.14,12.47-3.63,20-5.66,5.51-13.95,4.81-30.28,9.5-45.14,4.34-.57,4.44,2.43,4.51,4.85.26,8,.12,16,.39,24,.2,5.85.8,11.68,1.31,18.66,27.56-6.3,54.23-4.06,80.67-5.29l4.05-7.7c6.11,3,12.21,4.19,18.92.9,6-2.92,12.12-4.27,19.26-1.93,4.63,1.52,10.54.6,15.52-.65C394.3,430.92,468.72,420,543.43,410.72c6.47-.81,12.86-2.3,20-3.61.53-7.12,1.23-13,1.36-18.88a1844,1844,0,0,0-11.1-249.43c-1.42-12.51-4.45-24.9-7.46-37.16-3.64-14.84-13.9-22.1-28.93-23-2.66-.15-5.33-.35-8-.28-15.41.4-30.69.49-43.93-9.5-1.11-.83-4.13-.42-5.36.55s-2.37,3.64-2,5.15a124.09,124.09,0,0,0,5.21,15c5.26,13,10.4,26,16.14,38.71s12.08,25.19,18.29,37.7q12,24.14,24.17,48.16,4.95,9.8,10.16,19.46c9.74,18,6.93,35.56-9.43,47.81-7.26,5.44-16.25,9.22-25,11.81a277.82,277.82,0,0,1-39,8.33c-41.54,6-83.1,11.81-125.11,13.58-10.56.44-21.08,2-31.71,2.37,27-8,55.11-9.19,82.54-14.36q50-9.44,99.93-19.46a108.4,108.4,0,0,0,19-6.12,30.6,30.6,0,0,0,16.15-14.26c3.35-6.34,4.13-12.7-.07-18.9-15.44-22.76-24.12-48.92-36.62-73.17-7.24-14.07-12-29.57-16.55-44.82-5.49-18.36-9.58-37.15-14.6-57-4.05-.1-8.57-.63-13-.25-33.36,2.8-66.59,1.17-99.73-2.93-4.33-.54-8.5-2.35-16.39-4.62,6.16-1.64,8.47-2.5,10.85-2.85,30.36-4.49,60.8-7.68,91.57-5.24,7.31.58,14.64.86,22,1.06,8.55.23,17,1.47,23.66-6.92,2.33-2.95,8.4-3.54,12.89-4.06,6.59-.76,13.3-.63,20-.64,47.32,0,94.64-.38,141.94.22,12.23.15,21.47-3.63,30.66-11.34,23.54-19.75,33.82-44.66,35.5-75.11,2.28-41.23-14.86-70.48-49.48-91C634-150.8,604.87-160.1,572.22-151.86c-2.45.62-5.81,1.42-7.58.3-14.72-9.35-31-5.46-46.61-5.41-13.71,0-25.23,7.47-36.12,15.54-4,3-6.7,8.81-13.28,7.06l.47.44c9.25-18.24,24.29-29.65,43.2-36.37,19.44-6.91,38-5.67,55.09,6.74l8.8,6.38A109.19,109.19,0,0,1,629-157a156.82,156.82,0,0,1,60.3,30.12c18.45,14.66,30.36,33.28,34.45,56.76a170.35,170.35,0,0,1,1.08,53.74A82,82,0,0,1,703.65,28c-3.44,3.76-6.75,7.64-10.85,12.3,6.06,3.83,11.45,2.5,16.43,2.55C732.56,43.1,755.85,43,779,47c27.88,4.84,54.34,13.37,78.31,28.59,24.85,15.77,44,36.72,54.69,64.44,15.92,41.14,11.1,79.88-15.16,115.41a166.79,166.79,0,0,1-64.33,52.64c-6,2.8-12,5.56-19,8.81,4.52,16.66,12.65,30.75,22.83,43.81a26.54,26.54,0,0,0,4.11,4.36c16.36,13.27,21.36,30.73,21.77,51.32.51,25.27,3.33,50.5,5.57,75.72,1.77,20,1.93,40-2,59.73A96,96,0,0,1,860.42,571c-11.57,27-29.82,42-66.63,39.59-11.75-.78-21.06-7.28-30.17-14-1.35,1.45-2.68,2.23-3,3.3-5,16.88-6.38,18.63-22.78,18.87a432.31,432.31,0,0,1-43.93-1.55c-38.61-3.37-77.13-3.79-115.78-.08-28.52,2.74-57.16,4.13-85.76,6.05a77.2,77.2,0,0,1-12,.16c-10.46-.93-17.5-7.86-18.39-17.68-.95-10.58,3.8-18.3,14.61-20.6a239.92,239.92,0,0,1,35.57-5c13.7-.82,22.39-8.05,28-19.43a128.75,128.75,0,0,0,9-24.28c9.09-35,13-70.72,13.83-106.8a24.21,24.21,0,0,0-.55-6c-.28-1.21-1.28-2.27-2.73-4.68-17.08,3.1-34.7,6.13-52.26,9.52-33.35,6.43-66.55,13.76-100,19.37-22.3,3.74-45,4.87-67.48,7.71-9.52,1.2-20.43-1.74-27.71,7.74-9.84.73-19.85,2.87-29.49,1.77a75.47,75.47,0,0,0-25.56,1.26c-12.35,2.74-24.86,4.78-37.13,7.82a158.28,158.28,0,0,1-37.52,4.53c-9.76.05-19.84,2.18-29.16,5.25-7.54,2.49-13.78,3.19-20.86-.83-7.59-4.32-15.81-7-25.7-2.93-.46,3.6-1.5,7.43-1.31,11.2.33,6.64,1.26,13.26,2.18,19.85,3.4,24.32,7.91,48.57,2.85,74,4.24,1.43,7.21,2.73,10.31,3.42,44.41,9.88,89.08,16.1,134.82,12,18.54-1.67,37.28-1.22,54.85-1.71a42.65,42.65,0,0,1,4.55,2.51c23.17,17.53,32,41.2,31.92,69.78a333.21,333.21,0,0,1-7.39,71.38C327.27,798.88,323.94,856,325.75,913.44c.9,28.68,6.6,56.85,12.89,84.83,5.26,23.39,10.4,46.81,15.7,70.19.73,3.2,2.07,6.26,3.3,9.92,11.16,3.88,22.38,1.09,33.46.77,4.47-.12,7.47-3.37,8.74-7.22,2.49-7.55,5.25-15.22,6.16-23,1.84-15.87,3.16-31.85,3.54-47.81.54-23.32.21-46.66,0-70-.1-8.55.37-17.38-5.44-26.33l-37.81-8.51c6.7-4.55,18.95-8.86,25.16-7.07,15.17,4.37,30.46,2.23,45.73,2.37,11.94.12,13.47,1.12,17.05,12.45,6.62,21,12.45,42.18,19.67,62.92,5.46,15.69,12.38,30.88,19.06,46.11,1.72,4,4.95,7.23,8.09,11.66,7.24-5.72,8.74-13.09,11.09-19.73q16.71-47.09,32.93-94.32c2.16-6.28,3.36-13,11-18.71,2.68,0,7.23.17,11.76,0,10.64-.49,21.27-1.06,31.9-1.79,4.64-.32,9.23-1.33,13.87-1.64,4.24-.28,8,1,9.6,5.46,1.28,3.69-2.94,7.56-8.95,8.27-5.84.69-11.7,1.18-17,1.71-6.25,8.33-7.4,16.92-7.41,25.58,0,20-.49,40,.86,59.95,1.44,21.24,4.72,42.35,7.3,63.51.41,3.29,1.39,6.51,2.08,9.77,1.34,6.42,4.63,10.8,11.53,12.12,2.25.43,4.24,2.19,7.23,3.82-2.29,2.14-3.57,4.42-4.9,4.44-23.34.43-46.54,2.05-69.43,7-1.75.37-3.91-.36-5.65-1.11a4.67,4.67,0,0,1-2.32-3,5,5,0,0,1,1.15-3.46,6,6,0,0,1,3.12-2.3c14.4-3,18.18-14.3,20.57-26.46a76.49,76.49,0,0,0,1.49-15.9q-.84-49-2.16-97.91c-.12-4.51-1.4-9-2.83-17.56-3.5,7.38-5.72,11-7,14.88-8.37,26-16.07,52.21-24.92,78-6.24,18.24-13.68,36.11-21.15,53.9-2.76,6.59-5.63,13.7-14.19,17.43-2.42-2.44-6-4.69-7.57-7.91a272.66,272.66,0,0,1-12.64-29.32c-9.71-27.65-18.65-55.57-28.4-83.2-4.61-13.06-8.65-26.49-16.33-38-4.63.13-4.27,3.35-4.28,5.68-.11,38.67-.3,77.33,0,116,.13,17.42,5.42,23.56,22.28,28.26,4.41,1.23,8.92,2.14,13.26,3.55.89.29,1.73,2.2,1.7,3.34s-1.07,2.91-1.92,3.07a99.6,99.6,0,0,1-13.64,1.76c-13.3.62-26.65.56-39.92,1.57s-26.27,3-39.88,4.56c-3.85,4.52-1.76,10-1,14.9,5.64,36.2,11.8,72.31,17.33,108.53,9.15,59.93,18.28,119.83,19,180.71.79,63-5.46,124.95-21.23,186.06C367.65,1624,347.68,1654,316,1676.75c-15.11,10.83-31.32,17.49-50,17.76-16,.22-32,.85-48,.42-33.11-.89-60.64-14.24-82.2-39.29-23.41-27.2-39.58-58.63-49.17-92.94-9-32-15.62-64.7-23.28-97.09-1.22-5.18-2.26-10.41-3.53-15.58-10.8-43.9-12.4-88.12-6.26-132.93C61.26,1261,67.83,1204.76,75,1148.59c1.77-13.88,4.1-27.68,5.86-41.55.56-4.46.09-9,.09-13.69-7.9-4-16-3.45-23.89-3.48-17.34,0-34.66.74-51.53,5.51a25.31,25.31,0,0,1-7.75.83,3.88,3.88,0,0,1-2.72-2.52c-.35-1.77-.58-4.56.43-5.41A24.78,24.78,0,0,1,4,1083.57c6.93-2.13,14-3.71,22-5.75.28-4.35,1.67-8.5.59-11.86Q18.35,1040.32,9,1015.07c-2.76-7.45-8.71-11.67-17-11.72-13.29-.07-26.58,0-38.95,0-10,8.93-12.87,20.14-16.88,30.56a210.85,210.85,0,0,0-8.71,28.63c-2.26,9.94,1.67,15.47,11.53,17.1,7.09,1.17,14.33,1.43,21.06,2.06,3,4.84,2.74,8.59-2.39,9.89a35.42,35.42,0,0,1-11.86.48,197.32,197.32,0,0,0-55.74,2.28c-5.77,1.07-11.88.6-17.79.22-1.24-.08-3.1-2.75-3.25-4.36s1-4.66,2.24-5.11c5.6-2,11.36-4,17.22-4.63,10.36-1.18,17.19-6.79,21.81-15.49a156,156,0,0,0,8.26-18.15c14-37.42,27.74-75,41.86-112.35,4.46-11.82,9.74-23.35,14.84-34.92a45.91,45.91,0,0,1,5.22-8.49c4.42-6,11.14-6.24,14.57,0a118.19,118.19,0,0,1,8.56,20.13C11.22,934.66,18,958.36,25.93,981.7c7.45,22.07,15.52,44,24,65.65,3.38,8.6,8.22,16.74,13.26,24.53,4.34,6.7,10.89,9.56,20.2,5.84.92-3.67,2.4-8,3-12.41,6.61-46.85,12.38-93.8,14.67-141.09,2.74-56.65,2.81-113.32-3.15-169.78-1.74-16.47-6.08-32.69-9.55-49-1.66-7.8-4.33-15.39-6.08-23.18-8.17-36.37-5.44-54.5,14.14-82.5-4.53-8.57-3.07-18.38-2.06-28.3s1.88-20,1.52-29.93a363.27,363.27,0,0,1,2-57.88c.23-1.87-.36-3.84-.66-6.53-5.56-1.66-11.26-3.09-16.76-5.06-23.67-8.48-29.87-20.18-24.73-46.21,17-6,42.86-10,63.41-9.64,1.88-11.83,9.76-22.66,6.22-36.83-3.75-.57-7.55-1.72-11.31-1.61-38,1.11-76,2.26-113.92,3.76-20.79.83-41.23-1.53-61.62-5-5-.87-10.17-1.35-17.22-2.25,1.72,8.74,3.41,15.61,4.34,22.59.85,6.45.88,13,1.28,19.53,36.5-3.06,91.44.09,115,6.6.07,4.5-3.71,2.78-5.56,2.94q-22.91,2-45.86,3.45c-11.3.71-22.66,1.79-33.93,1.31-10.58-.45-21.08-2.73-31.91-4.25-8.53,9.26-14.34,19.7-9.71,37.59-11.76-25-11.68-29.16-.56-43.06-4.18-8.51-4.86-17.93-1.39-27.89,2.39-6.83,2.89-14.32,4.24-21.52ZM708,173.19c4.06-1.48,6.18,1.09,7.94,4,8.62,14.23,16.83,28.72,25.83,42.71,10.44,16.21,21.46,32.06,32.46,47.91,2.16,3.12,5.38,5.51,8.33,8.46,3.15-1.54,5.63-2.44,7.75-3.86,25.49-17,38.64-41.2,42.18-71.41,5.19-44.33-20.39-93.44-60.2-113-28.42-14-58.63-15.26-88.72-11.7-1.4,2.22-2.51,3.27-2.74,4.47-1.22,6.52-2.14,13.1-3.33,19.62-2.38,13-7.75,17.92-21.23,19.62-3.08.39-6.2.42-9.7.64-.32,3.85-1,6.47-.67,9,1,8.6,2.6,17.12,3.36,25.73,1.57,17.81,4.87,36-9.66,50.9-1.64,1.68-2.44,4.79-2.54,7.28-.87,20.68-.45,41.29,5,61.47,2.82,10.45,9.27,17.65,19.66,20.71a76.56,76.56,0,0,0,17.54,3.35,215.66,215.66,0,0,0,71.1-8.13c7.53-2.19,15.59-3.69,22-10.19-1.61-2.86-3.11-5.77-4.82-8.55-11.86-19.26-24-38.37-35.56-57.77-8.19-13.69-15.72-27.76-23.55-41.66Zm-.38,240.6c4-.27,5.72,2.07,6.88,5.6,7.66,23.46,14.13,47.07,15.73,71.94,2.79,43.26,1.5,47,37.74,84.09,3.25,3.33,6.54,6.64,9.89,9.88,6.1,5.88,13.74,8.85,21.87,8.17,24.09-2,27.24-2.19,34.86-25.17,3.07-9.26,4-19.6,4-29.44-.09-35.29-.94-70.58-1.64-105.87a160.41,160.41,0,0,0-1.5-17.9c-2.14-16-4.29-18.76-20.47-22.49-11.65-2.69-23.49-5.09-35.37-6.06-17.81-1.46-35.72-1.56-51.84-2.17,14-4.83,30.29-5.95,46.74-5.18,11.94.56,23.9,1.6,35.75,3.24,7.82,1.08,16.19,2.24,22.94,5.9,6.07,3.29,10.27,10,15.55,15.51-2.58-15.93-2-16.5-9.35-23.64-13.64-13.3-23-29.11-30.61-46.34-2-4.62-5.44-8.63-8.11-12.75-4.63.78-7.94,1.13-11.14,1.91a295.16,295.16,0,0,1-63.19,8.74c-18.61.39-37.24,0-55.86.23-7.8.08-15.9-2.44-23.18,1.85-6.24,20.46-7.44,46.43-2.89,62.82H667l-24.15,7.88c-.47,3.48-1.31,6.73-1.27,10,.32,25.31.13,50.65,1.45,75.9,1.22,23.25,3.33,46.51,9.2,69.19,4.15,16.06,11.42,22.24,27.77,23.63a81,81,0,0,0,12-.1q24.9-1.57,49.79-3.42c1-.07,1.81-1.47,3.69-3.08-3.58-5.17-7.17-10.57-11-15.82a80.1,80.1,0,0,1-15.71-48.55c0-4.66-.22-9.33,0-14,1.2-28.89-4.09-56.93-10.89-84.77ZM-21,928.49c-10.39,12.63-22.29,44.65-22.77,62,13.65,2.32,27.15,2.78,40.47-1.62C-4.5,972.73-13.25,943.25-21,928.49ZM73.19,367c7.13,5,31.09,8.61,46.57,7.26,1.27-6-4.21-7.39-7.12-10.65-3.36-3.78-6.08-8.14-9.41-12.7C89.94,349.65,82.56,360,73.19,367ZM648.35,108.24c11.49-4,15.37-10.48,16.51-27.65C652.65,84.81,650,89.25,648.35,108.24ZM148.6-224.54c-6.88,10.42-6.8,11.26,0,24.16Z" transform="translate(2220.94 2221.75)"/><path d="M1077.85,428l-25.47,5.29c-20.6-16.25-40.84-75.13-37.55-118.88,3.47-46.21,20-86.27,53.79-118.79l15.54,4.33c7-4.15,8.06-11.22,10.87-17.05,26.27-54.63,64.06-99.5,114.15-133.67C1379.38-66.82,1616.45-4.86,1704.53,190c3.24,7.17,5.17,15,10.84,22l20.62-4.73c62,54.73,64.84,175.73,5.38,237.3l-24.11-6c-7.38,4.33-8.12,12.26-10.93,18.71-30.28,69.56-78.28,123.34-144.25,160.57-58.35,32.93-121.23,46.14-188.26,41.88-124.54-7.91-241.49-90.36-288.51-214.36C1083.23,439.82,1080.67,434.53,1077.85,428Zm319,164.14c136.46,2.15,267.12-107.79,267.85-266.06.72-158.06-129.42-268.78-267.72-268.56-138.65.22-266.9,111.58-266.87,267.44C1130.17,481.37,1258.8,593.72,1396.88,592.18Zm-277-329.86c-7.72,8.45-9,17.88-10.57,26.9-10,56.41-3.95,111.36,15.22,165.18,22.56,63.35,64.09,109.71,123.78,140.22,40.92,20.92,84.14,33.29,130.13,35.07a246.68,246.68,0,0,0,69.37-7.06c5.64-1.4,10.83-4.67,16.1-7.34.69-.35,1-2.4.72-3.42s-1.55-2.58-2.48-2.65a77.49,77.49,0,0,0-11.8-.12c-16.6,1.23-33.2,3.83-49.78,3.72a288.44,288.44,0,0,1-129-31.24c-39.29-19.76-73.41-46.12-97.81-83.31-30.56-46.58-48.49-97.75-51.33-153.54-1.11-21.9.63-43.94.91-65.92C1123.44,273.83,1125.64,268.38,1119.91,262.32Zm564.18,26.54c5.61-4.05,6.64-9.35,6.48-14.72-.34-11.3-.23-22.72-2-33.83-9.36-60.32-38.95-109.84-82.6-151.48-33.47-31.93-72.65-53.71-117.74-64.54-16.22-3.9-32.61-6.79-49.4-6.22a67.8,67.8,0,0,0-13.8,1.57c-3.09.76-6.57,2.95-5.34,6.91a8.4,8.4,0,0,0,5.43,4.75c7.82,1.58,15.77,2.55,23.7,3.53,35,4.31,67.12,16.41,96.61,35.56A322.68,322.68,0,0,1,1634,156a227.79,227.79,0,0,1,37.74,87.39c2.34,11.74,3.79,23.66,5.7,35.49C1678,282.79,1678.15,287.06,1684.09,288.86Zm42.15,118.67c4.1-4,7.26-6.27,9.25-9.26,31.83-47.81,28-109.44-4.87-153.66-1.53-2.06-3.37-4.09-6.81-1.25,2,12.75,4.6,25.77,6.11,38.92a400.72,400.72,0,0,1,3,41.79c.12,13.28-1.81,26.56-2.14,39.86C1730.45,377.75,1724.33,391,1726.24,407.53Zm-655.58-.81c1.1-15.11-4.41-27.5-4.8-40.3-.39-12.58-2.5-25.13-2.55-37.71-.06-13.23,1.85-26.47,2.13-39.72.27-12.91,5.79-25.38,4-39.4-16.17,14.48-26.91,42.41-27.91,70.88C1040.39,353.73,1050.79,386,1070.66,406.72Z" transform="translate(2220.94 2221.75)"/><path d="M1808.8-1470.74c3,2.47,6.09,4.77,8.88,7.42,123.43,117.45,237.41,243.25,337.22,381.58,142.46,197.45,249.57,412.21,316.63,646.58a2161.62,2161.62,0,0,1,59,273.27c18.89,125.54,26.73,251.8,25.79,378.62-.56,75.33-4,150.6-11.49,225.6q-38.76,387.54-205.44,739.61-196.77,416.18-532.7,730.82c-125.24,117.43-259.33,223.76-399.61,322.48a67.28,67.28,0,0,1-15.72,8.47c-69.76,25-136.21,57.5-202.84,89.61-52.82,25.46-105.88,50.37-161.06,70.48-47,17.14-95,30.95-144.27,39.88a100.57,100.57,0,0,0-21,6.09c-56.73,23.95-115.83,40-175.92,52.46-73.12,15.21-147,25.85-221.3,33-57,5.5-114.13,10.43-171.22,15.45-6.56.58-13.21.08-19.76.08-1.78-4.6,1.65-6,4.39-7.46,11.85-6.55,24.83-9.75,38.05-11.52,13.86-1.85,27.86-3.74,41.8-3.71,52.18.12,103.74-6.38,155.21-13.67q111.84-15.86,221.92-41.42c123.07-28.41,242-69.19,358-118.85q381.33-163.28,686.19-444.72,337.68-313.34,530.51-731.86c39-84.75,77-169.87,109.56-257.39,36.55-98.38,62.63-199.38,79.46-303,11.23-69.11,20.65-138.43,26-208.19,6.93-89.75,10.36-179.63,6.77-269.73-2.15-54-5.08-107.87-10.43-161.59a2294.56,2294.56,0,0,0-36.11-237c-33.56-162.38-83.55-319.52-151-471C2268.91-877,2188.89-1015.09,2093.09-1144c-32.26-43.41-68.94-83.08-104.58-123.63-37.86-43.07-77-84.9-119.5-123.56-16.2-14.72-30.47-31.67-44.68-48.41-7.2-8.47-12.32-18.72-18.38-28.17Z" transform="translate(2220.94 2221.75)"/><path d="M-82.7,371.58A31.25,31.25,0,0,1-97.57,354.9l-26.56,9.67a515.39,515.39,0,0,0,1.81,63.82l22.16,8.32c1,4.25-1.15,5.52-3.8,6.45-5.58,2-11.15,4-17.38,6.18-.3,3.2-1.09,6.49-.83,9.69q3.8,46.79,8,93.53c.41,4.59,2,9.07,3.2,13.58,2.56,9.86,7.91,16.4,18.86,17.88,5.13.69,10.22,3,14.88,5.47,5.42,2.85,7.73,9.29,6.59,15.5-.91,5-4.85,8.9-11.44,9.37a248.82,248.82,0,0,1-29.91.48c-19.28-.94-38.49-3.24-57.8.22-5.8,1-12,.09-17.95,0-19.16-.43-32.48-10.44-42.22-26.07-2.45-4-4.41-8.22-6.47-12.4C-305.36,436.67-380.35,300-456.28,163.88c-3.08-5.52-4.83-12.23-12.8-16.77-.39,5.33-.89,9-.88,12.68q0,141,.31,281.91c.07,19.3,1.5,38.61,2.51,57.9.77,14.87,5.42,28.66,11.85,42,15.05,31.31,40.48,44.55,74.39,43.31,3.32-.12,6.65-.95,9.93-.73,5.7.36,10.32,3.07,12.31,8.64,2.31,6.42,3.18,13.07-1.16,19.09a8,8,0,0,1-4.84,3.14c-7.19.83-14.53,2.16-21.66,1.52-16.57-1.5-33-4.19-49.57-6.11-50.38-5.85-101-7.52-151.65-7.68-6.66,0-13.34.05-20-.48-7.62-.6-11.41-4.19-12.35-10.66-1.11-7.61,1.37-14.5,7.21-17.13a37.3,37.3,0,0,1,13.34-3.31c8-.35,16,.8,24,.41,9.91-.48,19.82-1.59,29.65-3,8.66-1.23,14.65-6.79,17.63-14.65,3.76-9.92,7.33-20.06,9.5-30.41a626.51,626.51,0,0,0,12.21-95.06c2.22-41.91,3.47-83.89,4.22-125.85.69-38,.27-76,.09-114-.1-21.37-1.84-42.65-7.51-63.33a95,95,0,0,0-9.12-22c-7.51-13.07-19.34-19.86-34.53-20.33-7.32-.23-14.66,0-22-.29A65.24,65.24,0,0,1-589,80.88c-6.56-1.74-9.36-6.3-9.32-13.55,0-7.6,2.66-11.4,9.55-13.2a37.58,37.58,0,0,1,9.82-1.54c42,.6,84,1.23,125.09,11.41,5.81,1.44,11.44,3.58,17.16,5.36,19.5,6.07,32.58,18.34,42,36.93,29.58,58.18,60.67,115.6,90.88,173.46,34.24,65.6,73.65,128.22,110.15,192.51,7.56,13.32,15.07,26.68,22.64,40,1.9,3.34,3.92,6.62,5.86,9.88,5.33-1.8,3.8-5.7,3.8-8.57q-.09-109-.38-217.92c-.08-42.7-2.44-85.27-8.2-127.57a293.72,293.72,0,0,0-8.79-40.92c-5.15-18-17.59-27.71-36.66-28.3-8.66-.26-17.34-.3-26-1.08a117.58,117.58,0,0,1-19.61-3.46c-5.32-1.41-8.48-6.65-8.55-12.19-.06-5.39,2.92-9.35,7.62-10.55,12.2-3.12,24.51-6.23,37-7.82,15.84-2,31.88-2.5,47.82-3.74,23.91-1.87,47.84-3.42,71.68-5.92,10.53-1.1,20.81-4.36,31.25-6.37q17.63-3.37,35.35-6.21a38.09,38.09,0,0,1,10,0c4.72.5,9.2,1.67,11.27,6.83C-15.3,54-16.32,60.53-21.65,64.5a70.54,70.54,0,0,1-17.22,9.84c-11.84,4.38-23.86,8.83-36.2,11.2-18.47,3.56-27.53,14.71-30.49,32.23-2.55,15.11-5.75,30.15-7.34,45.35-5.94,57-9.84,114.18-11.36,171.49-.07,2.58.59,5.19,1,8.77,7.59,2.19,15.14,6.09,22.7,6.09,7.78,0,13.64,1.61,18.83,7.27,1.38,5.15,1.44,10.31-1.48,15.24Z" transform="translate(2220.94 2221.75)"/><path d="M2140.41,51.48h211.94c5.34,0,10.69-.18,16,.2,14,1,18.73,5.36,20.36,19.62a105.06,105.06,0,0,1,.2,21.93c-2.93,29.83-6.38,59.61-9.44,89.43-.88,8.61-1,17.28-1.63,25.91-.34,4.63-.54,9.34-1.66,13.8a14.22,14.22,0,0,1-13,10.66c-6.22.42-11.82-2.67-14-9-2.84-8.15-5.09-16.53-7.13-24.92a535.73,535.73,0,0,0-24-74c-10.39-25.75-29.42-39.07-56.33-40.92-12.51-.86-25.21.7-37.79,1.57-11.31.77-18.75,7.58-21.72,17.88a275.53,275.53,0,0,0-7.71,37c-1.32,9.18-1.25,18.62-1.23,27.94.12,75.31-.2,150.63.82,225.92a913.28,913.28,0,0,0,12,137.29,267.23,267.23,0,0,0,8.6,34.84c3.91,12.66,12.72,19.55,26.48,20.47a209.41,209.41,0,0,1,31.62,4.52,145.58,145.58,0,0,1,26.36,8.84c6.22,2.72,8.24,8.67,7.11,15-1.07,6-5.17,9.45-10.66,10.51a101.29,101.29,0,0,1-17.85,1.5c-22.74.29-45.2-2.68-67.57-6.4a449.51,449.51,0,0,0-71.59-6.38,260.13,260.13,0,0,0-53.55,5.75c-18.33,3.74-36.77,6.5-55.52,5.81a89.43,89.43,0,0,1-17.62-2.78c-5.82-1.41-8.59-5.89-9.27-11.7-.77-6.61,1.41-12.17,7.35-15.12a64.83,64.83,0,0,1,15.12-4.87c8.46-1.81,17-3.42,25.58-4.43,13.81-1.62,23.61-9,29.91-20.78a142,142,0,0,0,9.95-23.9c10.72-33.81,16.11-68.71,19.53-103.89,7.29-75.11,5.79-150.44,4.49-225.74a247.75,247.75,0,0,0-8.87-61.17c-4.06-14.84-9.87-29-19-41.56-14.63-20.1-34.31-28.91-58.9-26.62-12,1.11-23.71,3.44-34.52,9.22-11.6,6.19-19.74,15.63-26.06,26.88-13.84,24.6-22.5,51.12-29.2,78.38-2.06,8.39-4.22,16.79-7,25-2.28,6.78-7.21,9.9-13.43,9.82a15.07,15.07,0,0,1-14.38-11.62,53.29,53.29,0,0,1-1-7.91c-3.57-37.79-7.33-75.56-10.55-113.38a173.88,173.88,0,0,1,0-31.86c1.07-10.84,6.22-15.16,16.89-16.32,5.94-.64,12-.44,18-.45Q2033.44,51.46,2140.41,51.48Z" transform="translate(2220.94 2221.75)"/><path d="M-1668.2,47.53h203.93c5.34,0,10.67.1,16,0,27.5-.49,27.87,8.81,28.34,28.25.41,17.19-2.73,34.46-4.25,51.7-2.28,25.87-4.44,51.75-6.84,77.6a85.52,85.52,0,0,1-2.9,15.56c-1.69,5.9-6.71,8.13-12.32,8.43s-10.92-1.85-13-7.37c-2.85-7.42-4.69-15.22-7-22.85-6.34-21-12.42-42.13-19.17-63-2.65-8.19-6.62-16-10.36-23.78-7.74-16.17-21-25.45-38.15-29.42-16.45-3.81-32.91-3.65-49.62-1.25-12.9,1.85-21,8.63-24.2,20.57-3,10.86-5.46,22-6.4,33.21-1.6,19.24-2.16,38.59-2.56,57.91q-2.44,116,3.08,231.87c1.7,36.59,4.81,73.15,11.62,109.22a228.18,228.18,0,0,0,8.45,30.74c3.75,11.1,11.78,17.1,23.84,18.12a301.05,301.05,0,0,1,31.65,4.4,176.06,176.06,0,0,1,23,6.57,25.83,25.83,0,0,1,8.43,5.17c7.13,6.26,5.65,18.1-3.26,21.41-6,2.25-12.94,2.91-19.48,3-24.07.47-47.77-3.22-71.55-6.57-20.41-2.86-41-4.57-61.61-5.89-21.39-1.37-42.51,1.48-63.48,5.93-17.62,3.74-35.48,6.15-53.57,5.38a77.11,77.11,0,0,1-15.75-2.1c-7.38-1.89-10.24-5.7-10.8-12.56-.64-7.87,2-13.15,9.09-16a86.53,86.53,0,0,1,15.36-4.2c8.48-1.7,17-3.15,25.59-4.41,11.36-1.68,20.18-7.6,25.57-17.31a154.33,154.33,0,0,0,12.69-29.17c11.37-37.1,16.51-75.4,20-113.93,6.14-67.16,4.21-134.5,4-201.8a299.1,299.1,0,0,0-8.14-67.33c-3.67-15.64-9.29-30.54-18.31-44C-1736,86.09-1757.84,77-1785.64,80.24c-27.34,3.15-47.25,16.14-59.5,41.16a344,344,0,0,0-25.48,71.33c-2.17,9.05-4.69,18.05-7.63,26.89a13.75,13.75,0,0,1-13.64,9.62c-6.86-.23-12.86-4.79-13.76-12.14-1.63-13.2-2.22-26.52-3.53-39.77-2.38-23.86-5.32-47.67-7.33-71.56a305.19,305.19,0,0,1-1-39.88c.57-12.07,5.68-16.67,17.37-17.92,5.94-.64,12-.42,18-.42Q-1775.17,47.51-1668.2,47.53Z" transform="translate(2220.94 2221.75)"/><path d="M-1039.08,356.82c-2.25-41.54-3.93-86.16-7.31-130.66-2.82-37.16-6.55-74.33-14.7-110.83-6.21-27.82-10.84-31.13-39.66-29.94-9.32.38-18.66,1-28,.77a50.85,50.85,0,0,1-15.45-3.23c-6.3-2.28-9.14-7.6-8.8-14.21s3.24-12,9.87-13.48c6.4-1.46,13.2-2.67,19.65-2.08,52,4.76,103.76,1.74,155.52-4.5,24.42-2.95,49.18-3.27,73.8-4.37a70.63,70.63,0,0,1,17.76,1.87c6.42,1.39,9.26,5.17,9.81,11,.71,7.62-2.44,14.43-8.63,16.35A73.09,73.09,0,0,1-890.88,76c-8.63.69-17.3.84-25.94,1.38-4.65.29-9.39.44-13.9,1.48-17.9,4.13-21.52,6.6-23.29,24.65-2.86,29.17-5.64,58.37-7.22,87.63-4,75.2-6.75,150.46-4.46,225.78,1.31,43.27,3.47,86.55,10.74,129.35,5.68,33.45,10.94,30,36,30.88,14,.52,28,1,41.9,2a57.15,57.15,0,0,1,15.48,3.42c7.66,2.84,11.18,9,11.43,17.11.22,7-2.26,12.24-8.68,14.13-6.93,2-14.33,3.81-21.45,3.57-14-.48-28.15-1.07-41.71-4-41.15-9-82.23-6.56-123.23-.59-26.42,3.84-52.83,7-79.5,7.66a108.88,108.88,0,0,1-21.8-1.49c-7.55-1.35-10.92-6.48-11.18-14.36s3-12.4,11-14.34a47.71,47.71,0,0,1,11.81-1.19c4.65.07,9.27,1.06,13.93,1.25,20.27.83,36.21-7,47.45-24.08,9.25-14.06,15.43-29.43,20-45.56a321.84,321.84,0,0,0,11.09-66.91C-1040.6,422.55-1040.23,391.21-1039.08,356.82Z" transform="translate(2220.94 2221.75)"/><path d="M-1925.48,1000.35c9.37,0,16.14,4,22.86,6,3.29,17.1,6.39,33.32,9.57,49.52a9.08,9.08,0,0,0,1.53,3.6c9.66,12.77,12,28,14.28,43.17,4.54,30.42,18.09,57,34.71,82.16a153.68,153.68,0,0,1,18.13,37.48c5.11,15.7,13,30.62,20.6,45.37,8.89,17.14,19.18,33.55,28.27,50.6,7.54,14.13,14.27,28.73,14.49,45.26.08,6.39,3.14,11.42,6.54,16.41,7.87,11.58,15.68,23.19,23.54,34.77,73,107.58,148.25,213.49,230.83,314,76.29,92.89,158.33,180.24,249.42,258.88,111,95.85,233.19,175.19,362.48,243.91,142.75,75.87,291.91,136.66,445.35,187,63.89,21,128.6,39.43,193,58.66a115.81,115.81,0,0,0,29.38,5c50.75,1.43,100.91,8.18,151,15.35,72.55,10.38,145.05,21.21,218.43,24.09,12,.47,24,.57,36,.76,5.93.1,11.86,0,21.65,0-8.9,6.15-15.6,4.89-21.51,6.23s-11.88,1.52-17.84,2.16c-55.33,6-110.54,3.68-165.54-3.41-118.31-15.27-235.93-34.51-351.82-63.26-195.82-48.59-381.17-123.61-557-222.15-131.73-73.81-256.43-158-370.85-256.8-202.55-175-365.2-381.84-492.06-617.17a2160.21,2160.21,0,0,1-129.7-289.76c-1.14-3.14-1.74-6.58-3.43-9.37-8.84-14.6-11.58-30.89-14.4-47.34C-1918.69,1014.75-1922.37,1008.39-1925.48,1000.35Z" transform="translate(2220.94 2221.75)"/><path d="M20.64-2044.94c-17.37,14.65-37.2,19.86-57.54,23a302,302,0,0,1-41.77,4c-44.91.73-88.72,8.45-132.34,18.45C-487.7-1936-741.87-1821.36-977.08-1663.41c-139.81,93.89-269.29,200.54-390.94,316.85-5.28,5-10.67,10-16.06,15-3.48-3.53.1-4.79,1.4-6.53,1.6-2.12,3.42-4.09,5.21-6.06a2114.23,2114.23,0,0,1,279.07-257c217.12-166.63,457.9-286.46,720.22-363.5a2333.1,2333.1,0,0,1,311.87-69c23.05-3.46,46.11-6.9,69.2-10.12C8.74-2044.64,14.72-2044.59,20.64-2044.94Z" transform="translate(2220.94 2221.75)"/><path d="M1944.9-976.68c-16.59-10.54-27-22.43-35.85-35.68a13.19,13.19,0,0,1-.45-14.84c1.38-.7,2.68-2,3.68-1.78,12.83,2.57,22.64-2.22,32.51-10.4,13.72-11.37,29-20.83,43.26-31.61,3.48-2.64,5.7-7.13,7.94-11.08.45-.79-1.62-3-2.85-5.13-21.21,9.21-41.47,19-58.6,34.22a43.72,43.72,0,0,1-31,11.49c-13.62-.32-21-11.61-14.44-23.37a72.6,72.6,0,0,1,16.24-20c21.64-18.1,38.83-40.22,57.25-61.24,2.39-2.73,4.33-5.84,6.61-9-5.3-3-7.06.72-9.22,2.79-10.71,10.23-21.91,19.2-37.37,21.56-4,.62-8.26,4.22-11.17,7.53-8.76,10-17.49,20.09-25,31-3.13,4.54-3.36,11.18-4.61,16.93-1.65,7.63-6.85,10.41-12.78,6.23-8.94-6.28-15.07-15-19.29-24.9-2.56-6,.35-13.89,6.21-14.75,16.14-2.37,27.22-13.47,40-21.62,5.61-3.57,11.39-7.25,16-12,7.24-7.51,18.1-8.37,25.49-14.88,6.94-6.12,12.69-13.57,19.22-20.19a65.81,65.81,0,0,1,9.38-7.44c6.15-4.27,10.78-8.93,12.44-17.07s9.21-9.18,15.23-3.46c7.16,6.82,13.95,17.59,18.94,30.09-1.2,7.8-6.77,12.71-12.09,17.75-9.2,8.69-18.91,16.9-27.6,26.08-11.85,12.51-23,25.68-34.27,38.74-1.06,1.24-.64,3.75-1.05,6.71,3.58,0,7,.88,9.78-.14,19.24-7.18,38.66-13.48,54.14-28.65,10-9.79,24-14.42,38.09-16,4.76-.53,11.5,1.17,14.62,4.44,7.27,7.61,13.16,16.61,19,25.43,2.61,3.93-2.43,11.16-6.71,9.29-14.21-6.23-22.57,3.23-31.7,10.44-16.2,12.8-32,26.14-48.08,39.06-9.32,7.47-18.7,14.92-28.52,21.7-5.5,3.79-8.5,8.24-8.4,14.78.07,4.66,1,9.41.37,13.94C1949.58-987.33,1947.33-983.27,1944.9-976.68Zm64-114.38c-.19-.5-.25-1.26-.59-1.42s-1,.15-1.59.26c.31.7.63,1.4,1,2.09Z" transform="translate(2220.94 2221.75)"/><path d="M1407.31,988.58c-5.22,24.38-3.78,46.95-1,69.4,1.84,14.73,6.73,18.55,22.2,20.86,3.87.58,7.75,1.11,13.31,1.9-1.71,3.11-2.45,6.45-4,6.85-4.37,1.13-9.16,1.94-13.59,1.37a388.77,388.77,0,0,0-75.72-2.31c-4.46.3-9-.79-15.31-1.41,1.61-3.9,2.47-6.67,3.91-9.1.44-.75,2.5-.84,3.78-.74,18.61,1.52,26.08-10.13,30.07-25.62a101,101,0,0,0,3.22-17.61,410.71,410.71,0,0,0-4.6-97.49c-.32-2-.87-3.89-1.34-5.83-5.06-21.07-6.92-22.76-28.82-26.34-1.3-.21-2.92-.11-3.83-.85-1.46-1.19-3.74-3.47-3.37-4.37a9.91,9.91,0,0,1,4.78-5.24c2.3-.94,5.29-.76,7.86-.34,21.36,3.51,42.51.27,63.62-2.17,17.34-2,34.55-2.46,51.63,1.36A91.12,91.12,0,0,1,1479,897c29,13.7,28.81,52.2,12.64,67.88-5.69,5.53-12,10.38-18.87,16.21,3.89,5.39,8.63,10.73,11.91,16.85a108.11,108.11,0,0,1,7.94,20.4c2.83,9.55,4.58,19.43,7.35,29,2,7,4.27,14.08,7.68,20.44,4.75,8.84,15.1,10.1,21.59,2.42,4.13-4.88,7-11.18,9.11-17.31,1.88-5.57,1.73-11.81,2.79-17.7.43-2.4,1.68-4.66,2.43-6.63,6.26-.67,8.52,3.13,8.65,7.05.49,15.51-1.65,30.66-10.81,43.74a36.47,36.47,0,0,1-58.48,1.7c-6.37-7.95-10.13-17.29-12.13-27.11-2.5-12.36-4.24-24.89-6-37.39-3.2-22.11-8.22-27.11-30.47-28.92C1425.78,987,1417.18,986.75,1407.31,988.58Zm-.63-12.7c10.22,0,18.82.68,27.27-.13,22.73-2.17,32.37-13.54,32.77-36.65.5-29.82-15.57-41.63-44.2-39.19-13.83,1.18-19,5.69-20,19.9-1,15.13-.19,30.4.28,45.6C1402.88,968.47,1405,971.46,1406.68,975.88Z" transform="translate(2220.94 2221.75)"/><path d="M-997.27,992.6c-1.23,3.37-3,6.34-3.35,9.47-2.36,20.6-2.52,41.21,1.66,61.63,2.76,13.45,6.4,16.86,19.37,19,2,.32,4,.23,6,.36,5.58.37,9.68,3.27,8.52,5.8-2,4.37-6,4.81-10.1,4.69a119,119,0,0,1-11.94-.94,320.84,320.84,0,0,0-63.79-2.09,102.5,102.5,0,0,1-17.85-.67c-1.41-.15-3.84-3-3.56-4.06a9.33,9.33,0,0,1,4.16-5.61c2.22-1.08,5.19-.82,7.83-.78,11.75.17,19-6.54,22.35-16.64,3.48-10.66,6.28-21.85,7.16-33,2.58-32.71-.7-65.17-6.87-97.34A101.23,101.23,0,0,0-1041,921c-2.48-7.79-8.2-11.92-15.91-13.46-4.52-.91-9.21-1.09-13.65-2.27-1.27-.34-2.76-3.12-2.6-4.62a6.14,6.14,0,0,1,3.47-4.22,16.46,16.46,0,0,1,7.85-.66c22.71,3.85,45.16.12,67.61-2.4,16.71-1.88,33.28-1.74,49.68,1.84a75.09,75.09,0,0,1,18.75,6.5,43,43,0,0,1,12.28,66.5c-5.62,6.4-12.78,11.44-19.9,17.69,14.29,13.35,19.42,31.16,23.59,49.45,1.77,7.78,3.81,15.52,6.11,23.15a63,63,0,0,0,5.29,12.88c5.45,9.6,15.61,10.51,23.11,2.26,5.57-6.12,8.28-13.6,9.34-21.67.61-4.61.28-9.39,1.29-13.89.47-2.09,3-5,4.81-5.16s4.58,2.49,5.3,4.48c1.08,3,1,6.53.92,9.83a72.08,72.08,0,0,1-7.22,30.84c-13,27-50.82,27.49-65.17,2.62-5.77-10-8.94-20.81-11-31.94s-3.15-22.4-4.71-33.6c-1.91-13.73-6.2-18.66-19.46-21.7A90.8,90.8,0,0,0-997.27,992.6Zm-3-12.78c14.55,1.82,28.22,1.73,41.61-2.73,7.18-2.39,13-7.14,15.87-14.22,6.6-16.37,6.83-33.32-4.16-47.29s-27.72-13.4-44-10c-5.84,1.21-9.58,5-10.72,10.5C-1005.87,937-1006.1,957.88-1000.22,979.82Z" transform="translate(2220.94 2221.75)"/><path d="M580.76-543.94c-102,.25-203.87,1.84-305.69,6.86-1.16.06-2.27,1.13-4.64,2.38-2.07,8.25-.92,17.55-1,26.7,0,8.66.48,17.31.81,26,.25,6.65,1.31,13.35.72,19.92-.65,7.22-2.85,14.29-4.24,21.44-1.11,5.72-2,11.47-3.14,18-25.35,2.65-51.15,7-77.85,2.93-18.92-2.9-38.42-1.94-59-.23,0,3.61-.46,6.73.08,9.66,3.16,17.27,9.7,32.8,21,46.75,12.28,15.17,13.34,32.47,5.06,50.57-6.83-3.59-7.22-10.22-8.93-15.63-4.63-14.61-9-29.21-15.93-43-4.21-8.4-5.5-17.74-5.18-27.24.22-6.59,0-13.19,0-20.58l-14.21-3.3c-6.84-12.28-9.21-25.54-7.26-39.94,2.33-17.13,3.9-34.36,5.83-51.9-2.61-3-5.51-5.66-7.68-8.86-1.74-2.58-2.61-5.76-4.36-9.84-32.77,1.42-65.29,2.93-97.83,4.23s-65.23,2.85-97.86,3.45-65.2.13-97.93-.82c9.54-3.48,19.53-4.8,29.48-5.66,36.5-3.16,73-5.93,109.55-8.87,18.59-1.5,37.15-3.53,55.77-4.49,33.92-1.73,67.87-3.94,101.81-4q183.9-.45,367.79.63C504.22-548.54,542.49-545.63,580.76-543.94ZM265-535.5c-24-3.31-131.38-.24-150,4.12-.66,2.48-.79,5.36-2.13,7.47-3.87,6.13-3.32,12.18-2.09,19,2.8,15.68,4.9,31.51,6.47,47.36.64,6.48-.78,13.18-1.41,19.77-.3,3.21-.92,6.39-1.27,8.75,4,5.74,8.79,4.58,13.31,3.85,11.15-1.8,22.21-4.25,33.41-5.64,29-3.62,58.09-7.71,86.94,1.38.81.25,2.1-1,3.18-1.61-2.1-5.61-.11-9.65,4.8-12.56C252.94-464.47,252.92-472.92,265-535.5Z" transform="translate(2220.94 2221.75)"/><path d="M968.46,902.62c-5.32,20.55-7.42,38.83-3.64,57.42,2.19,10.81,7.27,14.32,18.45,13.57s20.85-3.9,26.7-14.62c1.76-3.23,4.8-5.77,8.45-10,1.79,3.81,3.65,5.94,3.67,8.09.18,17.29,0,34.58-.08,51.86,0,2.91-1.27,5.45-4.35,5.39-1.59,0-3.75-1.62-4.61-3.11-2.32-4-4.08-8.35-6-12.57-6.59-14.12-21.75-14.56-34.66-11.58-1.63.37-3,2.39-4.2,3.91a6.63,6.63,0,0,0-1.19,3.75c-.11,26.56-2.9,53.27,3.76,79.51.15.6.69,1.11,2.15,3.35,18.49,7.14,38.75,6.92,59.18,2.33,9.08-2,15-8.53,18.81-16.66,3.91-8.43,6.91-17.28,10.56-25.84,1.45-3.4,3.57-6.5,5.45-9.83,1.59,1.09,2.37,1.34,2.65,1.86.91,1.71,2.31,3.5,2.33,5.28.17,18.53.1,37.07.1,56.46-2.82.81-5.9,2.47-9,2.46q-78.9-.27-157.79-1c-.85,0-1.68-1.83-3.38-3.79,2.57-1.84,4.86-4.81,7.51-5.16,18.81-2.52,24.31-14.08,26-31.74,4.52-46.71,1.88-93.18-1.54-139.72-.19-2.56-1.34-5.05-2.22-8.18-4.72-2.17-9.61-4.15-14.21-6.67-1.44-.79-3.22-4.07-2.92-4.39,1.6-1.7,4-4.15,5.8-3.93,39.24,4.7,78.52,2.35,117.79,1,5.32-.18,10.67-.37,16,0,3.17.19,6.28,1.38,10.32,2.33,2.28,16.32,2.58,32,0,47.81a5.56,5.56,0,0,1-1.89,3.41,10.84,10.84,0,0,1-5,2.05c-.88.09-2.53-1.34-2.77-2.34-1.28-5.15-2.25-10.39-3.27-15.61-3-15.14-12.72-22.91-27.48-24.74a157.82,157.82,0,0,0-19.94-.88C992.66,902,981.38,902.39,968.46,902.62Z" transform="translate(2220.94 2221.75)"/><path d="M-499.75,909.25c-5.55,8.8-6,18.13-6.09,27.4s-.34,18.72.92,27.89c1.57,11.37,6.42,14.65,17.55,14.76,12.24.11,22.1-3.86,28.35-15.06a27.09,27.09,0,0,1,6.13-7.45c.81-.67,4.41.26,4.93,1.34a16,16,0,0,1,1.29,7.68c-1,15.88-3.5,31.7-.26,47.68.48,2.37-2.19,5.38-4.54,10.62-3.52-6.17-5.89-9.88-7.82-13.8-9.47-19.17-18.27-22.73-40.23-16.1-.67,1.12-1.91,2.23-1.91,3.35-.08,23.94-.56,47.9.23,71.82.42,12.64,4.47,16.4,17.33,17.46,12.56,1,25.27.76,37.9.53,12.45-.23,21.61-6.61,27.1-17.5,3.87-7.68,6.44-16,9.82-23.95,1.72-4.05,3.93-7.88,6.62-13.18,7.19,7.4,4.06,15,4.53,21.65s.12,13.33.43,20c.33,7.16,1,14.32,1.57,22.24-4.27,1-7.36,2.38-10.45,2.39q-76.93.18-153.88,0c-1.91,0-3.83-.84-5.58-1.25-2.05-4.4.34-6.43,3.76-7.63,3.75-1.32,7.61-2.39,11.46-3.42,8.76-2.33,13.42-8.26,14.77-16.94.92-5.91,1.68-11.86,2.2-17.82,3.61-41.29.93-82.55-.72-123.81-.24-5.89-1.75-11.74-2.66-17.49l-21.43-12c4.72-1.93,6.85-3.59,8.94-3.53,8,.24,15.94,1.41,23.92,1.53,20.62.31,41.26.47,61.89.26,16-.16,31.94-1.29,47.92-1.39,9.24-.05,12.39,3.11,12.61,11.63.26,10,.34,20-.33,29.95-.3,4.43-2.42,8.81-4.07,13.07-.84,2.18-6.06,1.91-6.72-.38-1.29-4.39-2.2-8.9-3.05-13.4-3.17-16.93-10-24-27.05-27.63a32.37,32.37,0,0,0-5.9-1C-466.81,907.29-483.39,906.23-499.75,909.25Z" transform="translate(2220.94 2221.75)"/><path d="M1378.34-1687c-4.7-7.4-8.74-12.74-11.54-18.67-1.11-2.37-.26-6.5,1.21-8.92.86-1.42,5.2-2.14,7.09-1.27a91.58,91.58,0,0,1,17.16,9.83c15.28,11.65,30.55,23.16,48,31.66,10.12,5,15.62,14.05,17.93,25.09,6.22,29.61-9.77,56-39.16,64.38-1.89.54-3.76,1.16-7.24,2.23-6.3,19.27-12.94,39.3-19.3,59.42-.7,2.24.23,5,.48,8.59,5,.78,9.5,1.19,13.84,2.23,7.14,1.7,10.35,9.13,7,15.61s-9.22,9.92-16.25,9.58a37.15,37.15,0,0,1-26.47-12.27,20,20,0,0,1-4.52-18.71c3.31-13.54,5.65-27.41,12.68-39.77,2-3.47,4-6.91,5.75-10.5,7.8-16.36,1.71-30.56-15.77-35.82-4.32-1.3-9.21-1.23-13.8-1-5.08.25-9.46,3.19-9.76,8.34-.57,9.66-3.89,17.4-10.21,24.9-2.81,3.33-1.78,10.16-1.9,15.42-.15,6.63.77,13.3.4,19.9-.42,7.31-5.52,10.74-12.36,8.7a45.55,45.55,0,0,1-10.92-4.68c-9.06-5.58-17.92-11.5-26.78-17.39-4.78-3.19-4.68-3.33-9.74-15.88,2.82-1.91,5.83-5.66,9-5.82,24.37-1.19,36.5-18.31,45.75-36.84,9-18,20.08-34.39,31.66-50.64C1366.69-1668,1372-1677.15,1378.34-1687Zm48.34,82.88c5.92-9.36,11.14-17.71,16.46-26,3.26-5.09,2.75-10-.35-14.88a83.33,83.33,0,0,0-33.62-30c-3.9-2-7.56-1.37-11.36.42-6.27,2.94-11.24,7.52-13.83,13.68a221.7,221.7,0,0,0-8.83,26.25c-1.43,5,1.53,9.5,5.61,11.76C1394.54-1615.28,1408.48-1607.8,1426.68-1604.15Z" transform="translate(2220.94 2221.75)"/><path d="M-1169.19-1329.2c6,4.37,11.25,10.16,17.79,12.67,15,5.75,23.25,22.16,41.12,25.4,2.09-4.1,4-8.08,6.15-12s5.12-6,9.57-6.06c5.37-.1,8.75,2.91,10.88,7.34a20.68,20.68,0,0,1,2,7.63c1.07,19.77-22.94,35.75-40.35,26.55-12.94-6.84-25.36-14.55-35.52-25.5a91.17,91.17,0,0,0-15.21-12.68c-4.64-3.2-10-3.06-15.23-.61-9.58,4.44-16.38,11.22-19.17,21.62-2.06,7.72-.19,12.85,7.49,16.13,6.88,2.93,12.31,6.18,16.14,13.33,2.07,3.87,8.43,6,13.28,7.69,6.22,2.19,13,2.68,19.31,4.79,9.79,3.3,12.65,11.47,5.58,18.38-10.9,10.64-22.88,20.22-34.79,29.76-2.26,1.82-6.33,1.73-9.59,1.88a6.14,6.14,0,0,1-6.77-5.88,73.66,73.66,0,0,1,.38-15.85,28.61,28.61,0,0,0-5.94-22.47c-5.65-7.4-10.5-15.78-17.4-21.78-13.74-11.94-24.54-26.14-35.29-40.55-7.51-10.08-14.85-20.37-25.57-28.49-6.5,1.93-12.76,4-19.13,5.61-3.38.87-7.38.3-8.47-3.19-.83-2.69-.39-7.08,1.36-9a95.22,95.22,0,0,1,16.25-14.5A277.24,277.24,0,0,0-1249-1383c12.13-12.33,27.47-12.37,42.87-7.89,22.71,6.6,38.67,31.31,37,49.29C-1169.46-1338.32-1169.19-1335-1169.19-1329.2Zm-16.18-21c-6.45-7.56-12.21-13.92-17.52-20.64-5.85-7.41-13.23-8.35-21.32-5.34a88.19,88.19,0,0,0-33.15,21.15c-4.14,4.28-5.48,9.31-3.43,14.54,1.9,4.84,4.12,10.24,7.85,13.52,7.38,6.49,15.69,12,24,17.3,4.34,2.75,9.41,1.17,12.78-2.31C-1205.19-1323.24-1193.47-1334-1185.37-1350.16Z" transform="translate(2220.94 2221.75)"/><path d="M1610.84-1537.29c-3.74-5.65-7.15-10.5-10.25-15.54-3.19-5.21-3-9.69.13-12.82,4-4,8.89-3.3,12.84-.64,8.26,5.54,16.21,11.57,24,17.77,17,13.58,30.94,30.91,50.43,41.62,3.94,2.17,7.36,5.76,10.23,9.33,7.44,9.26,6.63,17.83-1.71,26.46-6.89,7.13-13.64,14.4-20.15,21.3-6.7-.62-6.89-5-5.1-8.66,2.31-4.7,6.09-8.66,9.15-13a10.58,10.58,0,0,0,1.14-11.26c-2.75-6-5.33-12-8.23-18.5-8.39-5.48-18.49-9-25.69-17.63-4.6-5.49-22-4.28-28.11,1.29a135.77,135.77,0,0,0-18.4,20.8c-4.6,6.4-3.2,12.08,2.57,17.93a28.34,28.34,0,0,0,6.19,5c2.87,1.59,6.06,2.6,10.05,4.25,2.54-3,4.95-5.88,7.46-8.7,1.76-2,3.35-4.83,5.55-5.49a13.33,13.33,0,0,1,9.07.65c1.47.74,2.55,4.84,1.89,6.79-1.67,5-3.72,10.11-6.86,14.24-8.43,11.14-17.35,21.94-26.4,32.6-6,7-8.36,6.36-17.21-3.88l11.1-17.89c-4.65-8.71-12.94-11.61-21.11-16.91-12.92,14.31-25.36,27.92-34.56,43.64,5.77,25.31,28.11,32.93,43.59,46.44,9.35-1.63,12.85-8.94,18.68-13a46.29,46.29,0,0,1,14-6.72c4.51-1.24,9.35,4.27,8.16,8.81-1,3.78-2.23,7.85-4.57,10.86-7,8.92-14.47,17.39-21.8,26-4.57,5.36-10.34,5.68-16.34,3.2a71.31,71.31,0,0,1-10.46-5.72c-30.58-19.23-57.4-43.24-84.8-66.53-3.71-3.16-6.64-6.72-4.68-12.06,2.23-6.06,7.28-8.93,14.27-8.26a7.46,7.46,0,0,1,2,.35c17.75,7.26,30.52-1.71,39.31-15,17.78-26.8,39.59-50.09,60.61-74.11C1608-1531.78,1608.78-1533.71,1610.84-1537.29Z" transform="translate(2220.94 2221.75)"/><path d="M675.59-1769.28c-1.55-15-.89-17.16,12-19.37,12.06-2.07,19.29-8.75,22.89-19.55,2.94-8.79,5.67-17.88,6.65-27,1.79-16.7,6.2-32.63,11.1-48.55,3.32-10.77,6.22-21.67,9.56-33.41-3.77-3.17-7.07-6.19-10.63-8.86-3.16-2.37-6.9-4-9.89-6.58-4.34-3.7-3-11.28,2.28-13.19a23.3,23.3,0,0,1,9.65-1.66,101.66,101.66,0,0,1,17.66,3.15c15.29,4.21,30.4,9.11,45.74,13.18a236.3,236.3,0,0,0,25.43,4.75c7.35,1.11,14.5,2.54,20.31,7.49,5.48,4.69,8,10.56,5.75,17.8-2.77,8.86-5.46,17.75-8.65,26.46-.75,2.05-3.29,4.78-5.1,4.85-4.46.18-4.8-4-4.57-7.17.35-4.61,1.62-9.14,2.25-13.74.27-1.92.72-4.75-.3-5.78-7.26-7.23-12.79-17.34-23.91-19-8.49-1.24-17-1.08-25.4-4.06-7.91-2.79-22.36,5.53-26,14.6a110.13,110.13,0,0,0-6.58,24.91c-1.2,8,2.28,12.56,9.63,15.48a37.22,37.22,0,0,0,7.68,2.12,16.6,16.6,0,0,0,5.92-.11c1.9-.37,3.68-1.36,6.75-2.57.74-3.89,1.53-8.31,2.44-12.7s3.26-7.19,8-7.36c4-.15,6.66,2.63,7.19,7.8.27,2.64.78,5.41.32,8-3.31,18.22-6.91,36.38-13.81,54.93L766-1818c1-7.53,1.79-14,2.65-20.79-6.41-7.52-15.28-6.27-23.63-6.52-7.88,11.91-14.08,36.09-14.18,54.85,19.29,16.32,26.78,18.84,61.3,20.28,2-4.18,4.35-8.83,6.58-13.51,2-4.19,3.61-8.59,5.91-12.6,2.53-4.4,7.75-6.4,11.93-5,4.52,1.55,5.78,5.47,5.51,9.58a122.65,122.65,0,0,1-2.36,17.72c-1.54,7.14-3.58,14.19-5.78,21.17-2.59,8.19-6,10.78-14.32,11.14a59.27,59.27,0,0,1-10-.5c-37.75-4.78-74.39-14.53-110.9-24.86C677.59-1767.3,676.64-1768.48,675.59-1769.28Z" transform="translate(2220.94 2221.75)"/><path d="M-552.86-1704.2c-23.13,8.66-46.81,7.71-69.78,11.39-1.93.31-4.29.64-5.9-.15-12.56-6.19-25.46-12.64-32.59-25.2-7-12.26-6.59-25.89-.35-38.52,9.07-18.36,22.9-30.89,44.46-32.5,4-.3,8-.49,12-.91,13.37-1.39,13.36-1.42,24.58-11.22,8.63,1.4,13.28,7.76,16.83,15,2.87,5.9,5.23,12.08,7.57,18.23,1.89,5,.34,9.07-4,12.19-6.93.26-10.34-5.11-14.64-9.09-14.31-13.19-31.77-14.12-47-2.22a22,22,0,0,0-6,7.75,173.38,173.38,0,0,0-7.53,18.49c-3.4,9.94,0,18.63,9.1,23.57,8.61,4.71,17.83,5,27.22,3.12,12.41-2.49,25-4.43,37.14-7.8,12.36-3.42,22.12.44,31.45,7.88,20,15.92,26.13,38.84,16.64,62.41-9,22.24-8.94,22.25-30.51,34.35-6.35,3.57-12.42,7.45-20.43,6.84-7.55-.58-12,5.24-16,10.48-5.64,7.38-12.82,8.73-21.31,7.46-5.66-.84-10-3.39-12.86-8.36-8.37-14.38-17-28.62-25.1-43.14-3.87-6.93-1.9-13.68,4.08-17.52,7.57-4.86,17.18-4.37,22,1.13.44.5,1,1,1.22,1.56,5.4,17.87,21.79,21.7,36.11,29,10-4.12,20-7.87,29.54-12.39,3.38-1.6,7-4.53,8.58-7.79a54.75,54.75,0,0,0,4.33-35.12C-536-1694.24-543.94-1699-552.86-1704.2Z" transform="translate(2220.94 2221.75)"/><path d="M1908,896l-13.52,8c-.32,1.66-1.1,3.12-.72,4.14,8.87,23.58,22.18,44,35.73,54.65,7.5-2.06,11.24-8.74,15.08-14.68,8.18-12.63,18.32-24.36,21.11-38.88-5.19-10.51-19.24-1.06-23.92-12.81,12.29-4.66,24.36-2.68,36-3.92,11.24-1.19,22.55-1.82,33.91-2.71,3.45,2.22,4.29,5.38.82,7.8a80.86,80.86,0,0,1-14,7.52,59.51,59.51,0,0,0-24.6,19.81q-15.33,21-30.55,42a32,32,0,0,0-6.33,16.5c-2.2,25.35-1,50.59,1.87,75.79.23,2,.92,3.89,1.24,5.86,1.34,8.15,5.69,13.11,14.16,14.45a188.29,188.29,0,0,1,19.52,4.19c1.43.39,3.58,3.49,3.21,4.16-1.08,2-3.31,4.93-5,4.86a173.44,173.44,0,0,1-25.77-2.54c-22.11-4.31-43.75-.07-65.51,2.68-3.92.49-8,1.3-11.8.72-1.82-.27-3.74-3.25-4.52-5.41-.33-.9,2-3.83,3.41-4.12,5.85-1.19,12-1.18,17.74-2.58,13.47-3.28,19.39-9.89,20.07-23.73,1.09-22,.88-44-3.8-65.66a48.65,48.65,0,0,0-5.44-14.92c-10.72-17.62-21.51-35.23-33.15-52.24-9.2-13.43-20.57-24.64-38.2-26.35a5.62,5.62,0,0,1-3.27-2,4.83,4.83,0,0,1-1.27-3.45,4.29,4.29,0,0,1,2.41-2.94c3.12-.75,6.53-1.81,9.54-1.24,19.2,3.63,38.41,3.32,57.73,1.25A52.45,52.45,0,0,1,1904,891C1905.32,891.17,1906.27,893.67,1908,896Z" transform="translate(2220.94 2221.75)"/><path d="M-1376.54,903.15c1.81,11.83,2.8,54.71,1.15,61.71-.5,2.12-2.82,4.84-4.8,5.36-3.78,1-6.14-1.89-6.92-5.42-.86-3.88-1.2-7.87-1.83-11.8-3.65-22.67-22-41.63-44.42-45.64-14.35-2.56-26.28,1.88-35.45,13.28-6.81,8.48-10.75,18.39-13.12,28.83-6.89,30.41-5.63,60.82,1.2,91a65.43,65.43,0,0,0,16.65,31.37c11.41,11.88,25.06,14.54,40.24,9.54,24.06-7.92,41.3-31.71,42.19-57.2.13-3.89.28-8.23,2.07-11.44,1.3-2.34,5.45-4.51,8.08-4.25s5,3.5,6.81,5.94c1,1.4,1,3.82,1,5.78-.32,32.5-25.53,66-56.61,74.8-27.54,7.81-51.29-.11-71.7-19-18-16.64-25.76-38.49-28.53-62.17a132,132,0,0,1,10.7-70.19,106,106,0,0,1,10.92-19c21-28.92,50.93-38.5,84.4-25.61C-1402.3,903.86-1390.32,904.72-1376.54,903.15Z" transform="translate(2220.94 2221.75)"/><path d="M-995.61-1549.54c-8.69-.91-15.27-.78-19.57,7.64-1.79,3.51-6.9,5.32-11.08,8.32,1.75,3.86,2.66,7.09,4.49,9.67,10.78,15.21,21.73,30.29,32.71,45.35,9.7,13.31,19.3,26.71,29.4,39.71,4,5.16,9.23,9.37,12.6,12.72,10.52-.75,19.06-2.24,27.47-1.72,8.93.55,12.51,9.27,6.57,15.91-5.69,6.37-12.09,12.76-19.46,16.83-8.94,4.95-16.72,10.67-23.3,18.37-4,4.64-8.8,8.11-15.29,8.5-4.88.3-9.46-.44-12.66-4.41a12.71,12.71,0,0,1-1-15c3.76-6.18,8.78-11.59,13.85-18.08-2.07-11-7.88-21-15.06-29.39-17.33-20.41-29.77-44-45.09-65.75-1.92-2.73-4-5.39-5.7-8.21-6.89-11.09-13-9.75-21-2.85a41.13,41.13,0,0,0-5.49,5.78c-4.06,5.11-4.1,9.22-.27,14.43,4.3,5.86,8.88,11.51,13,17.51a13.14,13.14,0,0,1-1.64,16.36c-3.27,3.36-9.58,3.94-14.85.82-2.79-1.65-5.73-3.72-7.47-6.36-7-10.56-13.47-21.42-20.15-32.17-4.11-6.62-3-13.14,1.87-18.42a87.48,87.48,0,0,1,15.24-12.74c11-7.44,22.38-14.27,33.52-21.5,4.41-2.86,8.45-6.32,12.9-9.12,6.74-4.24,13.4-8.75,20.59-12.07,14.24-6.58,19.51-5.14,29,7.44a292.85,292.85,0,0,1,16.91,24.75c1.89,3.12,2.25,7.42,2.46,11.22.18,3.35-4.41,6.29-7.22,4.57-4.42-2.69-8.91-5.71-12.3-9.54C-986.93-1536.92-991.25-1543.64-995.61-1549.54Z" transform="translate(2220.94 2221.75)"/><path d="M1815.12,1668.66c-3.78-9.85-11.84-10.5-20.8-11.15l-7.5-15.29c-2.51-.15-4.53-.74-6.29-.28-5.53,1.43-11,3.24-17.6,5.27-.34-4.22-1-6.82-.63-9.27s1.14-5.45,2.77-7.26c7.08-7.9,14.34-15.68,22-23,2.1-2,5.84-2.27,10.3-3.87.38,7.86.69,14.24,1.07,22.1,12.39,12.36,24.9,26.22,38.86,38.41,15.44,13.49,32.22,25.46,48.53,38.19l19.06-2.8c.26,4.29,1.86,8.62.43,11.41a216.17,216.17,0,0,1-15.49,25.47c-5,7.14-13.11,7.84-20.51,8.69-4.51-5.55-.39-9.44.69-13.71,2.75-11,1.12-16.09-8.65-21.57a49.87,49.87,0,0,1-13.48-11.39c-3.44-4-7.88-7-12.61-11.17-3.45,1.88-7.17,3.23-10,5.61-5,4.19-9.52,9-14.9,14.2-1,5.71-2.21,12.2-3.35,18.46l26.52,30.62,13.67-3.61c4.64-1.21,9.17-1.71,13.19,2.09,2.31,6.8,1.17,13.11-3.56,18.5-6.58,7.49-13.33,14.85-20.31,22-1.72,1.76-4.47,2.78-6.93,3.51-5.93,1.74-10.87-1.67-11.18-7.76-.27-5.29-.06-10.61-.06-16.67-15.09-20-64.29-68-80.56-78.29-6.21,1.11-12.63,2.49-19.12,3.32-3.32.42-6-3.84-4.72-7.06a18.22,18.22,0,0,1,2.53-5.29c6.83-8.17,13.74-16.26,20.82-24.2a16.31,16.31,0,0,1,6.37-4.63,10.91,10.91,0,0,1,7.22.19c1.31.54,2.48,3.29,2.4,5-.17,3.25-1.32,6.44-2,9.66-2,9.38-1.27,11.43,7.4,15.86,7.7,3.93,15.64,7.16,21.27,14.31,1.3,1.66,5.31,2.81,7.25,2.06,8-3,16.26-6.3,19.93-15C1810.2,1683.05,1812.62,1675.52,1815.12,1668.66Z" transform="translate(2220.94 2221.75)"/><path d="M251.78-374.54c1.18,22.61,2.42,45.22,3.53,67.84,1.07,21.88,2,43.76,3.08,66.73,4.73-.82,8.49-1.52,12.26-2.11,3.92-.6,7.88-1.6,11.8-1.51,4.77.12,9.19,2,11.65,6.49,2.83,5.21,2.72,10.17-3.35,15.39-9.34-3.38-17.2-14.52-31.08-9.73-.44,2.95-1.58,6.66-1.44,10.32.93,24,2.24,47.89,3.21,71.84,1.19,29.29,2.33,58.59,3.17,87.89.87,30,1.23,60,2.05,89.93.2,7.19-1,14.66,2.5,21.25l44.58,10.27c-6.58,3-9.52,5.11-12.71,5.63-9.82,1.6-19.73,2.59-29.6,3.81-4.25,5.44-2.37,11.6-2.33,17.35.56,77.93,1.53,155.87,1.78,233.8.09,26.62-1.48,53.24-2.37,79.86-.21,6.44,0,13-4.73,21.59-1.7-26.24-3.58-49.41-4.62-72.61-3.66-81.21-6.38-162.45-6-243.77.36-70,1.34-140-.1-209.9S251.4-244,251.27-313.91q0-30,0-60Z" transform="translate(2220.94 2221.75)"/><path d="M276.24-1963.42c-11.36-10-28.43-2.12-38.63-13.52-.52-4.44,2.54-6,5.44-7.48,7.31-3.66,15.28-5.79,23.21-4.3,13.33,2.49,26.51.7,39.77.41,10-.22,20,0,29.93,0a11.25,11.25,0,0,1,10,5.36c3,4.4,2,9.64-2.63,11.74a76.09,76.09,0,0,1-9.43,3.14c-4.46,1.33-9,2.33-13.41,3.86-6.76,2.37-10.92,6.48-11.41,14.47-.81,13.26-2.53,26.47-4.14,39.67-1.7,13.94-1.76,27.58,1.3,41.57,2.23,10.21,1.1,21.16,1.56,31.77.11,2.59.61,5.16.92,7.69,8.39,6.55,18.31,4.09,27.17,6.07,6.09,1.37,11.4,3.13,14.86,8.8,4.57,7.47,2.21,15.13-6.19,17.14-5.74,1.38-12,2.77-17.67,1.8-21.07-3.65-42.3-2.41-63.45-3.4a102.72,102.72,0,0,1-19.74-2.48,20,20,0,0,1-9.54-6.32,9.1,9.1,0,0,1,4.26-14.59c5-1.45,10.4-1.58,15.64-2.13,7.14-.76,14.56,1.91,21.23-1.41.82-1.52,2.06-2.71,1.92-3.71-3.92-28,.12-55.8,2.67-83.48C281.5-1930.31,279.85-1946.94,276.24-1963.42Z" transform="translate(2220.94 2221.75)"/><path d="M-755.76-1545.49c9.89-3.86,17.9-6.94,25.86-10.13,6.6-2.64,13-2.67,19,1.43,5.19,3.53,6.53,11,2.64,15.84a26.85,26.85,0,0,1-5.84,5.37c-3.86,2.58-7.71,5.58-12,7-21,6.92-39.12,19.41-58.74,29a98.47,98.47,0,0,1-12.76,5.65c-3,1-6.91,1.87-9.64.81a19.62,19.62,0,0,1-8.7-7.26c-2.52-3.85-.37-8,2.85-10.56a118.24,118.24,0,0,1,13.22-8.82c5.59-3.4,11.33-6.56,16.54-9.55-.19-2.5.19-4.15-.46-5-16.83-22.64-27.43-48.59-38.87-74-7.18-16-16.2-30.36-29.24-43.18-13.6-2.29-25,11.83-41,7.25,1-3.29,1.35-6.45,2.87-8.85,4.77-7.47,11.29-13.64,19.69-16.2,11.1-3.4,20.09-10.12,29.74-15.93s19.49-11.48,29.51-16.69c2.69-1.4,6.45-1.59,9.56-1.18,5.79.78,8.73,7.8,5.08,12.17-4.69,5.59-9.91,10.75-15,16-6.25,6.35-8,12.67-3.51,21.4,6.39,12.38,11.1,25.62,16.81,38.36,4.9,10.93,10.31,21.42,19.1,30.12,5.08,5,8.29,12,12.15,18.18C-763.44-1558.78-760.22-1553-755.76-1545.49Z" transform="translate(2220.94 2221.75)"/><path d="M1954.17,1662.32c-9.3-2.74-13.93-7.75-11.26-15.31,5.24-14.88-2.4-24.08-12.37-32.78a19.86,19.86,0,0,0-3.11-2.49c-22.67-13-42-30.34-61.68-47.27-2.44-2.1-5.47-3.51-8.56-5.44-6.08,3.76-11.52,7.45-17.27,10.58-4.33,2.36-10.52-1.73-9.5-6.5,1.08-5,2.72-10.43,5.74-14.46,8.72-11.65,18.38-22.59,27.42-34,5.75-7.25,11.31-14.68,16.51-22.33,3.79-5.59,7.64-10.82,13.92-13.86,5.34-2.58,10.52-2.47,15,1.3,7.54,6.4,14.7,13.25,21.79,19.69-.59,5-3.58,6.36-7,4.65-5.27-2.65-10.09-6.21-15.82-9.84l-20,8.3c-5.73,8.35-10.6,15.4-15.43,22.46s-4.72,19.68,1.14,26.09a91.51,91.51,0,0,0,16.68,14.09c7.16,4.77,13.65,3.26,19.16-3.88,2.34-3,3.58-6.91,5.83-11.43-4.21-3.68-8.13-7-11.85-10.44-2-1.89-1.75-3.58,1.25-11.52,4.24,1.24,9.22,1.55,12.77,4,13.11,8.88,26.38,17.7,37.87,30.25l-7.13,9.76-16.13-9.38c-7.61,3.66-10.36,10.38-13.9,17.72,11.21,12.5,24.36,22.09,38.57,29.89,21-6.8,29-24.52,39-41.59-3.78-4.36-7.24-8.28-10.63-12.26-2.13-2.53-4.55-4.93-6.13-7.78-2-3.66-2.59-8.23,1.08-10.84,2.22-1.58,6.46-1.93,9.09-1,4.26,1.58,8.09,4.5,11.82,7.25,4.81,3.55,9.45,7.37,14,11.29,7.91,6.86,9.33,12,4.12,20.81a400.66,400.66,0,0,1-22.8,35.15c-11.47,15.51-23.84,30.35-35.93,45.39C1958.85,1658.6,1956.62,1660.12,1954.17,1662.32Z" transform="translate(2220.94 2221.75)"/><path d="M1094.84-1691.13c3.33-32.89,15.77-66.72,40.93-95.25,8-9.13,17.73-16.39,29.26-20.36,18.3-6.29,35.7-5,49.82,9.76,8.08,8.46,16.52,15.09,28.82,16.06,5.29.42,8,5.68,5.87,10.51q-10.59,23.65-22.2,46.84c-.72,1.45-4.65,1.81-7,1.65-.86,0-2.33-3.23-2.11-4.79.73-5.25,2.3-10.38,3.18-15.61,3.79-22.6-8.67-41.49-30.65-46.65-1.28-.3-2.81-.82-3.91-.41-11.67,4.38-24.72,5.79-33.34,16.56-13.79,17.22-26.3,35.12-32.26,56.76-.88,3.18-2.16,6.54-1.9,9.71,1.28,15.3,3.43,30.46,10,44.6,4.38,9.46,10.87,13.42,20.8,9.89,5.63-2,11.49-3.37,17.24-5.05,7.88-2.3,14.51-6.31,19.64-13a47.48,47.48,0,0,1,10-9.59c3.48-2.46,7.77-2.07,11.23.56s5.23,6.14,4.37,10.46a27.43,27.43,0,0,1-2.71,7.47c-9.19,17.32-23.51,28.66-41.78,35.16-3.08,1.09-6.66,1.91-9.8,1.45-18.7-2.75-36.69-8-50.61-21.48C1096.44-1656.76,1094.27-1671.43,1094.84-1691.13Z" transform="translate(2220.94 2221.75)"/><path d="M584.1,2381.37c2.23-3.86,4.25-5.9,4.63-8.22,2.25-13.81,4.26-27.86.42-41.56-2.86-10.19-.85-19.78.9-29.55,1.3-7.25,6-11.83,13.09-13.48s14.21-2.61,22.73-.86c-.38,3.18.14,6.12-1.08,7.75-3.95,5.26-4.57,10.82-3.43,17,4.93,26.8,9.73,53.63,14.75,80.42.94,5,5.12,7.35,9.31,9.69,7.86,4.4,7.78,4.56,11.82,13.06-14,6.36-27.51,13.32-43.94,6.44,7.32-18.51,7.5-18.72,4.14-42.56-1.39-9.83-3.44-19.58-5.63-29.26-.51-2.24-2.79-4.08-5.52-7.84-1.62,3.78-3.18,5.84-3.32,8-.81,12.62-1.28,25.21,1.48,37.77a88.3,88.3,0,0,1,1.62,17.81,26.49,26.49,0,0,1-2.09,9.66c-2,5.1-5,9.66-11.11,10.23s-10.32-3.09-12.64-8.05c-2.8-6-4.5-12.47-6.65-18.75-5.59-16.34-11.12-32.69-16.82-49-.85-2.43-2.49-4.59-5.51-10,0,6.43-.07,9.69,0,12.95.16,5.28,2,11.13.32,15.73-3.36,9.28-.8,16.9,3.34,24.76,1.86,3.52,4.12,7,5,10.83,1.81,7.56,5.65,13.22,12.3,17.26,1.48.9,2.13,3.17,3.66,5.61-1.71,1.87-3.13,4.92-5.13,5.35a145.36,145.36,0,0,1-21.49,3.05c-4.11.28-8-3.84-7.24-7.88,4.39-22.83-4.89-44.83-3.76-67.44.16-3.14-1.35-6.41-2.3-9.56-1.52-5.09-4.17-10-4.65-15.21-1-10.16-4.08-19.18-12.14-27.48,3.52-2.48,5.79-4.91,8.56-5.88,8.25-2.89,16.74-4.23,25.71-1.11,8.54,12.34,9,27.51,13.77,41.2C571.74,2355.17,576.18,2368.08,584.1,2381.37Z" transform="translate(2220.94 2221.75)"/><path d="M583.57-1968.87c1.52,4.25,2.88,6.13,2.71,7.87-1.62,16.54-3.37,33.07-5.39,49.57-.56,4.59-3.74,6.69-9.49,5.92-.66-4.35-1.42-8.78-2-13.23-4.1-30.62-15.46-40.4-47.8-41.06a12.9,12.9,0,0,0-1.83.78c-29.3,18.33-35,47.69-38,79-2.41,25.12,10.32,43.27,25,60.73,6.77,8.08,11.84,8.14,21.08,2.57,5.69-3.42,10.93-7.58,16.47-11.26a35,35,0,0,0,13.54-16.8,65.29,65.29,0,0,1,6.29-12.39c2.41-3.61,6.42-4.51,10.65-3.58,4.41,1,7.3,4.07,7.34,8.29.06,5.9-.22,12-1.84,17.65-3,10.32-8.73,19.33-15.86,27.43-9.3,10.56-20.22,17-34.93,15.39-6.6-.72-13.3-.52-19.94-.92-19.19-1.18-32.12-11.16-40-28.41-5.61-12.33-7.67-25.36-8.65-38.73-1.83-24.88.7-49.17,9.29-72.68,5.59-15.3,14-28.77,27.45-38.4s28.32-13.35,43.25-5.8C554.36-1970.17,567.74-1966.24,583.57-1968.87Z" transform="translate(2220.94 2221.75)"/><path d="M2058.73,1404.53l-52,45.6c-7.36,0-14.64,0-21.92,0-15.22-.05-24.77-8.29-30.59-21.55-7.73-17.63-2.87-40,11.43-53.13,2.93-2.7,6.23-5,9.33-7.49,9.64-7.77,9.63-7.78,14.26-20.18,15-5.86,22.75,7.54,33.44,12.89,2,1,2.3,5.45,3.23,7.92-5.68,5.13-11.07,3-16.06,2.07-15.58-2.75-25.59,4.86-32.52,17.48a25.65,25.65,0,0,0-2.78,13.19,71.78,71.78,0,0,0,3.72,17.52c3.1,9.68,12.77,14.52,22.37,10.59a63.26,63.26,0,0,0,16.69-10.54,153.88,153.88,0,0,0,19.75-19.71c9.66-11.91,22-13.87,35.86-11.58,18.2,3,31.83,17.27,36.39,35.1,5.73,22.39-1,40.39-17.19,55.42-4.94,4.58-5.77,10-7,15.86-3.19,15.18-14,20.7-28,14.21-12-5.62-23.91-11.63-35.73-17.7-5.65-2.9-8-8.16-6.46-13.17,2-6.67,8.64-11.87,14.64-11.41a17.75,17.75,0,0,1,3.88.75c19.26,6,19.26,6,40,3.5,4.92-7.07,10.6-15.15,16.17-23.29,2.78-4.07,3.65-8.47,1.69-13.23-1.52-3.68-2.91-7.41-4.36-11.11C2081.78,1409,2072.1,1402.84,2058.73,1404.53Z" transform="translate(2220.94 2221.75)"/><path d="M-124.17-599.35c4-.18,7.89-.39,11.84-.53q132.73-4.85,265.47-9.65c81.17-2.9,162.32-6.68,243.52-8.2,62.55-1.17,125.16.55,187.74,1a86.61,86.61,0,0,1,16,1.54,320.56,320.56,0,0,1-43.14,5.69C427-600.21,296.54-598.52,166-597.83q-127.84.68-255.68,1.25c-11.29.05-22.58,0-33.87,0Z" transform="translate(2220.94 2221.75)"/><path d="M633.15-2024.51c20.2,3.89,40.4,7.72,60.59,11.67,78.42,15.33,156.58,31.84,233.87,52.25,73.47,19.4,145.79,42.28,215.72,72.26,7.88,3.38,15.62,7.07,22.57,13.25-11.72-2.65-23.62-4.69-35.14-8.06q-94.87-27.79-189.57-56.17c-60.59-18.21-121.21-36.33-183.6-47.48-17-3-34.39-4-51.49-6.57-15.09-2.31-30.25-4.81-45-8.78C649.66-2005.25,639.32-2011.45,633.15-2024.51Z" transform="translate(2220.94 2221.75)"/><path d="M540.92-1369c-10.57.25-21.14.71-31.71.7-81.89-.08-163.79-.43-245.68-.33-49.27.06-98.54,1.55-147.8,1-68.55-.75-137.09-2.81-205.64-4.32-17.3-.38-34.61-.85-51.91-1.21-5.93-.12-11.87,0-17.92-1,9.12-4.27,18.72-5.92,28.57-6.34,31.92-1.37,63.83-3.27,95.77-3.92q132.82-2.71,265.6,2.54c55.21,2.14,110.47,3,165.7,4.79,45.91,1.51,91.8,3.56,137.7,5.38,2.45.1,4.89.37,7.34.56Z" transform="translate(2220.94 2221.75)"/><path d="M-199.53-1322.43c0,13.17.19,23.81,0,34.44-.73,34-2.42,67.94-2.29,101.9.35,88,.78,176,2.51,263.92,1.52,77.37-.67,154.61-3.91,231.87-.81,19.3-2.3,38.58-3.68,57.86-.37,5.16-1.5,10.27-2.62,17.71-4.44-15.74-7.15-75.8-7.12-175.88,0-59.32,1.5-118.63,2.59-177.94,1.08-58.64,2.73-117.27,3.71-175.92S-205.2-1261.52-199.53-1322.43Z" transform="translate(2220.94 2221.75)"/><path d="M1590,1979.19a58.8,58.8,0,0,0-14.36-23.93c-16.75-17.28-29.27-37.78-44.45-56.23-3.7-4.5-7.81-8.66-10.92-12.09-7.92.14-11.41,4.3-14.82,8.35-4.92,5.88-4.8,9.66.11,15.76,3.73,4.64,8.19,8.88,11,14,1.65,3,1.57,7.68.69,11.21a7.19,7.19,0,0,1-9.37,5.23c-4.23-1.4-9-3.53-11.69-6.82-6.79-8.15-12.65-17.1-18.76-25.81-4.51-6.44-3.34-12.86,1.56-18.26a108.14,108.14,0,0,1,13.42-11.84c13.54-10.65,27.1-21.28,40.89-31.6a96.59,96.59,0,0,1,15.38-9.18c8.78-4.3,13.71-3.86,19.77,2.8,7.15,7.85,13.58,16.38,20.07,24.81,2.59,3.38,2.27,3.76-.6,12.6-5.25,1.41-9.12-1.21-12.37-4.69-4.07-4.38-7.65-9.21-11.65-13.66-5.37-6-11.35-6.17-17.17-.58-1.86,1.79-2.92,4.4-4.76,6.22s-4.12,3-7.25,5.27c2,3.8,3.2,7.55,5.51,10.46,16.07,20.24,31.5,41,50.37,58.92,6.63,6.28,12.06,13.83,18.38,21.21,5.43-1.39,9.75-2.86,14.19-3.52a41,41,0,0,1,11.76-.17c5.94.87,9,7.22,5.66,12s-7.21,9.72-11.85,13.27c-9.47,7.27-19.54,13.65-26.65,23.66-1.74,2.44-5.33,3.86-8.34,5.06a11.39,11.39,0,0,1-12.89-2.76c-3.64-3.71-4-8.69-1.66-13C1582.21,1990.16,1586.21,1984.89,1590,1979.19Z" transform="translate(2220.94 2221.75)"/><path d="M1287.1,2063.08c-6.14-9.54-19.43-9.1-19.44-22.06,2.76-.52,5.47-1.87,7.71-1.31,13.76,3.43,22.75,15.07,22.72,28.76,0,4-.44,8,0,11.93.63,6.33,3.64,11.34,9.62,14.17,3,1.42,6,2.93,9.06,4.19,17,7,23.91,21,24.26,38,.43,20.94-8.81,37.22-27.76,47.22-14.11,7.44-28.29,14.74-42.47,22.05a65.77,65.77,0,0,1-9,4.23c-6,2-12.33-3.8-11-10.13a29.34,29.34,0,0,1,3-7.25c1.21-2.3,2.76-4.43,4.19-6.68-6.35-23-15.46-44.21-29.1-63.44-3.42-4.83-5.57-10.53-8.61-15.65-4.06-6.84-8.08-13.75-12.76-20.15-3.7-5.08-8.48-8.59-15.33-4.23-1.43.91-3.8.6-5.71.46-3.18-.22-5.4-5.27-3.54-7.74.79-1,1.44-2.38,2.49-3,14.72-9.1,29.33-18.4,44.34-27,7.86-4.5,14.39-3.31,15.51,1.41s-1.27,8.21-8.36,11.84c-2.37,1.21-4.91,2.07-7.28,3.28-11.23,5.74-13.1,10.55-8.9,22.53,7.5,21.42,28,28.28,46.28,15.3C1279.67,2090.79,1286.88,2078.67,1287.1,2063.08Zm-6.76,111.38c12,1,21-3.08,29.44-8.58a35.29,35.29,0,0,0,14.57-18.48,29,29,0,0,0-19.4-37.58c-16.15-4.69-34.11,2.45-44.94,17.87-6.52,9.29-6.8,14.62.13,23.49C1266.27,2159,1273.16,2166.24,1280.34,2174.46Z" transform="translate(2220.94 2221.75)"/><path d="M596-1294.84c1.62,30.56,3.45,61.11,4.81,91.69,3.32,74.47,6.29,149,9.66,223.44,1.86,41.22,5.24,82.4,6.16,123.64,1.32,58.56,1,117.15,1.37,175.73.09,16.63,0,33.26-1.29,50-3.61-6.86-5.07-14.12-5.61-21.57-2.8-38.5-6.45-77-8.11-115.51-2.4-55.85-3.86-111.76-4.82-167.66-1.66-96.51-2.68-193-3.83-289.55-.28-23.28,0-46.57,0-69.86Z" transform="translate(2220.94 2221.75)"/><path d="M-1595.18,1482.82c3-.48,3.83-.89,4.22-.63,11.18,7.4,21.1,10,30.92-3.22,4.44-6,14.34-6.82,19.16-15.07-4-13.08-9.16-25.52-26.61-28.86l-28,14.58c-5.14,7.63,1.35,17-6.55,24.35-3.68-1.47-9.15-2-11.59-4.93a189.8,189.8,0,0,1-17.89-26.31c-3.37-5.9,2-12.33,8.78-11.31,2.59.39,5,1.55,7.6,2.26,1.89.53,3.82.9,6,1.4,26.44-12.74,49.89-30.43,74.57-46.1,4.92-3.12,7.17-7.6,6.46-13.56a22.79,22.79,0,0,1,0-7.86,6.59,6.59,0,0,1,3.73-4.06c1.55-.51,4.49-.06,5.33,1.07,7.09,9.58,14,19.28,20.49,29.29,1,1.48-.39,5.11-1.68,7.1-.64,1-3.79,1.17-5.38.58-4.31-1.6-8.39-3.81-13.17-6.06-3.21,2.65-6.26,5-9.15,7.58-4.93,4.36-10.09,8.53-14.48,13.39-2,2.19-3.85,6.28-3.14,8.76,2.13,7.51,4.27,15.38,12.41,19.37,4.69,2.3,9.06,5.27,13.36,7.82,2.46-1.2,5.26-1.63,5.84-3,4.12-9.77,11.7-14.92,22.26-16.21-.36-6.9-.67-12.62-1-18,2.38-.88,3.83-2,4.69-1.64,3,1.24,6.77,2.27,8.54,4.64a266.2,266.2,0,0,1,15.22,23.35c1.11,1.89.48,4.8.77,9l-16.51-3.34c-28.38,14.25-34.51,18.5-82,57-.9,5.11-1.92,10.86-2.86,16.24-2.07.58-3.49,1.51-4.45,1.16-9.88-3.58-15.84-11.83-22.21-19.42C-1596,1496.77-1596.2,1490.21-1595.18,1482.82Z" transform="translate(2220.94 2221.75)"/><path d="M-984.31,2092.07c5.61-2,9.78-3.94,14.17-4.79,7-1.37,12.12-5.18,16.18-10.74,2.74-3.76,6-7.3,7.91-11.47,8.21-18.35,20.08-34.37,31.19-50.91,2.54-3.78,4.11-8.21,6.15-12.39-3-5.67-6-10.76-8.17-16.21-.39-1,3.17-5.1,4.48-4.91a25.74,25.74,0,0,1,10.89,4.17c13.47,9.68,27.08,19,41.63,27.14,11.87,6.63,16.55,22.6,12.23,37.13-3.54,11.88-10.25,21.6-22.18,26.7-3.63,1.55-7.36,2.84-12.2,4.69l-14.36,47.78c5.34,1.85,9.6,3,13.54,4.78,4.48,2.08,5.6,8,2.53,11.9a14.67,14.67,0,0,1-4.27,4c-12.26,6.43-31.18-5-29.72-18.63,1-9.77,4.49-19.32,7.33-28.83,1.12-3.76,3.42-7.19,5.28-10.71,3.33-6.27,4.76-12.58-.23-18.6-5.4-6.51-12.24-10.21-21-9.21-4.36.49-7.47,3-8.31,7.36a45.29,45.29,0,0,1-6.11,16.48c-2.51,4-1.86,10.06-2.19,15.23-.3,4.6.34,9.26-.11,13.83-.39,4-5.38,7-9,5.45-12.33-5.1-23.74-11.76-33.12-21.4C-982.94,2098.71-983,2096.32-984.31,2092.07Zm111.69-29.32c21.84-23.24,19.27-30.26-5.69-48.65a16.18,16.18,0,0,0-1.7-1c-8.29-4.57-15.73-3.61-20.45,4.7-4.14,7.3-6.54,15.73-8.64,23.94-.58,2.26,2,6.77,4.3,8.07C-894.55,2055.52-884.25,2061.48-872.62,2062.75Z" transform="translate(2220.94 2221.75)"/><path d="M1665.5,1729.7c15.34,11.87,26.06,24.39,36.19,37.43,1.15,1.48.16,4.62.16,9.45-7-4.22-12-7.08-16.8-10.2-16-10.35-29.16-9.59-46.16,7.52-1.77,1.79-3.58,4.43-3.74,6.79-.76,11.19-2.34,22.31,4.24,32.94,9.13,14.77,18,29.54,32,40.36,15.79,12.2,34.06,14,53,12.33a10.27,10.27,0,0,0,9.32-9.2c2-14.39,6-29-3.19-42.63-1.44-2.14-2.82-5-2.63-7.39.23-3,1.35-6.87,3.5-8.54s6.33-2,9-1.11c2.91,1,5.64,3.6,7.57,6.17a64.41,64.41,0,0,1,13.3,44.94c-.2,2.62-.38,5.65-1.74,7.7-19.58,29.57-39.19,47-75.93,28.13-26.17-13.41-46.2-33.69-60.27-59.51-6.46-11.86-10.07-24.7-8.72-38.44,1.32-13.45,7.12-25.13,19.49-30.58S1657.41,1743.67,1665.5,1729.7Z" transform="translate(2220.94 2221.75)"/><path d="M-362.12,2252.86c-5.23-4.13-9.57-7.19-13.44-10.74-2.88-2.64-.68-8.95,3.32-9.4a34.4,34.4,0,0,1,11.77.26c9.65,2.36,19.1,5.49,28.68,8.14,11.5,3.18,23.06,6.1,34.55,9.3a40.93,40.93,0,0,1,9.18,3.63c5.19,2.92,7.75,8,6.2,13.43-2.34,8.2-5.42,16.19-9,26.68-2.52-3.82-4.78-5.67-4.71-7.44.17-4.59,1.36-9.14,2-13.17-8.14-17.22-24.75-16.54-39.1-19.31-6.51-1.25-12.95,2.94-16.64,9.1a44.3,44.3,0,0,0-4.54,11c-4.3,15.57.31,20.75,18.53,20.46,2.18-4.37,4.38-9.06,6.85-13.59,1.08-2,6-1.44,6.76.7.9,2.44,2.36,5.19,2,7.53-2.46,14.28-5.24,28.53-12,42l-9-1.63c.31-5.65.59-10.71.95-17.23l-16.41-4.88c-1.81,2.19-3.7,3.51-4.21,5.24-3.35,11.43-6.4,22.94-9.44,34,11.77,16.36,28.91,16.22,45.84,19.47,2.36-4.28,4.44-8.27,6.73-12.14a75.44,75.44,0,0,1,6.47-9.89c2.47-3,8.89-1.06,9.74,2.65.44,1.93,1.12,4,.77,5.86-2.11,11.06-4.41,22.09-10.74,33.1-4.93.11-10.19.92-15.25.22-26.44-3.63-51.89-11.37-77.32-19.14-4.19-1.28-7.28-3.37-7-8.19.24-4.38,2.31-7.87,6.93-8.41,14.18-1.66,21.26-10.91,23.32-23.61,3.76-23.09,11.27-45.05,18.13-67.25C-361.64,2257.9-362.12,2255.79-362.12,2252.86Z" transform="translate(2220.94 2221.75)"/><path d="M429.38,2434.77c5.63-.26,10.3-.21,14.9-.74,16.62-1.92,26.5-11.91,28.05-28.08.44-4.68.11-5.37-8-16.82-16.79-3-33.22-5.41-49.42-8.94-24.18-5.28-34.31-34.75-18.41-53.47,10.73-12.62,24.59-17.82,41.19-14.4,5.21,1.07,10.41,2.86,15.63,2.92,4.34.05,8.7-1.95,12.81-3,10,9.53,7.4,21.24,7.46,32.3,0,2.35-4.92,4.11-6.41,2.33-2.51-3-4.68-6.3-6.95-9.49-11-15.44-29.74-16.23-42.14-1.76-13.8,16.09-10.38,28,10.14,33a116.75,116.75,0,0,0,25.71,3c15,.23,25.54,6.7,31.21,20.51,6,14.6,4.72,27.8-5.18,41.21-10.83,14.67-25.38,18.88-41.72,18.45-7-.18-12.7.54-18.89,3.64-11.8,5.9-20.8,1.52-24.07-11.2-2.65-10.31-4.83-20.73-7.13-31.12-1.46-6.62.67-11.69,5.39-13.31,7.22-2.48,15.42.15,16.15,6.76C411.09,2419.39,420.25,2425.93,429.38,2434.77Z" transform="translate(2220.94 2221.75)"/><path d="M-1195.93,1773.94c3.2,11.61-1.78,21-7.48,30.14-13,21-30.2,36.69-54.6,43.79-14.44,4.21-27.84,3.22-39.67-6-12.54-9.79-24.41-20.45-36.39-30.94-1.88-1.65-3.13-4.27-4.09-6.68a9,9,0,0,1,8.86-12.16,11.15,11.15,0,0,1,3.88.74c11.25,5.16,19.28.18,25.86-8.43,6.09-8,12.51-15.42,21.15-20.82,2.73-1.71,5.77-4.16,6.88-7,3.13-7.94,9-12.89,15.87-17.15,7.3-4.52,9-10.94,6-18.91-2.08-5.5-5.71-12.06,1.56-15.77,6.8-3.47,10.86,3.13,14.73,7.23q14.31,15.23,27.81,31.2C-1198.06,1752-1192.26,1761.7-1195.93,1773.94Zm-99,47.13c18.6,17.14,29.85,18.52,48.64,5.89a118.38,118.38,0,0,0,37.57-40.55c4-7,5-14.36,2.28-21-3-7.12-8-13.69-13.36-19.42-6.43-6.93-14-7-21.07-.2a232.66,232.66,0,0,0-21.06,23.83c-7,8.91-13.45,18.07-23.45,24.08-5.31,3.19-8.73,7.89-8.4,14.76C-1293.59,1812.39-1294.44,1816.32-1294.92,1821.07Z" transform="translate(2220.94 2221.75)"/><path d="M-142.27,2332.22c0,25.28-6.8,45.64-21.61,63.23-10.14,12-22.73,18.39-38.61,16.62-15.2-1.7-30.37-3.75-45.49-6.05-3.11-.47-6.23-2.34-8.84-4.25-4.22-3.09-3.41-11,1.13-13.77a12,12,0,0,1,3.64-1.58c13.48-2.77,17.75-12.05,18.87-24.66.69-7.81,3.45-15.44,5.3-23.14.92-3.86,3.11-7.87,2.61-11.53-1.22-9.11,1.32-17.09,5.16-25,3.11-6.37,1.31-11.59-3.73-16-1.49-1.33-3.12-2.49-4.66-3.76-3.8-3.15-6.92-6.89-4.34-12,2.18-4.29,6.78-3.73,10.61-3a238.07,238.07,0,0,1,55.39,16.4c5.05,2.24,8.65,5.74,11.77,10.32C-146.67,2306.35-139.12,2318.78-142.27,2332.22ZM-211,2392.77c23.4,5.72,35.14.84,44.39-18.88a115.39,115.39,0,0,0,10.48-58.17c-.62-8.58-5.09-15-12.54-19a77.46,77.46,0,0,0-14.6-6.11c-11.88-3.53-19.47.51-22.34,12.66a200.2,200.2,0,0,0-4.41,29.46c-.88,10.63-1.43,21.16-6.25,31-3.07,6.26-3.58,12.54.7,18.85C-213.44,2385.75-212.38,2389.63-211,2392.77Z" transform="translate(2220.94 2221.75)"/><path d="M-566.74,2205.73c-7.26-5-5.13-10.55-4.73-15.66.41-5.27,1.05-10.52,1.51-15-5.26-8.9-13.66-8.68-21.4-10.22-7.12-1.42-14.12-3.41-20.87-5.08-14,7.55-14.66,19.89-14.39,32.51,11.84,8.14,12.74,8.13,20-.06,2.53-2.84,5-5.73,8.52-9.77,2.12,3.21,4.38,5.1,4.6,7.21,1.08,10.43-9.43,38.26-16.86,45.82-2.93,3-8.74,2.58-10-1.39-1.74-5.35-2.09-11.16-3.08-17-10.75-2.17-10.71-2.12-15.16,5.24-3.38,5.58-7.69,10.67-10.5,16.5-3.31,6.86-4,14.06,2.09,20.35,1.83,1.88,3.73,4.07,4.49,6.47s.89,5.75-.38,7.3-4.66,1.75-7.17,2.16a7.57,7.57,0,0,1-3.88-.76c-11.66-4.87-23.33-9.7-34.88-14.82a16.16,16.16,0,0,1-5.94-4.9c-3.47-4.55-.16-11.61,5.47-11.84,5.28-.21,10.57,0,17.19,0,10.75-12,14.76-28.48,21.51-43.41s12.25-30.77,18.75-47.35l-13.23-15.34c3-1.55,5.77-4.19,8.1-3.88a63.61,63.61,0,0,1,15.23,4.54c18.45,7.58,36.91,15.19,55.16,23.24,12,5.29,16.44,18.17,10.43,29.71C-558.89,2195.41-562.76,2200-566.74,2205.73Z" transform="translate(2220.94 2221.75)"/><path d="M1770.53-1498.86q-153.19-111.72-306.34-223.49c-1.26-.92-1.88-2.74-3.74-5.58,3.38,1.06,5.24,1.33,6.79,2.17,76.9,41.5,151.64,86.34,219.46,141.88a702.39,702.39,0,0,1,78.2,74.22c2.64,3,5,6.18,7.45,9.28Z" transform="translate(2220.94 2221.75)"/><path d="M1773.52-1248.89c-2.68-1.68-5.83-2.9-8-5.11-7.89-8.14-18-8.64-27.78-7a18.7,18.7,0,0,0-15.87,15.92c-.65,3.81-.91,7.68-1.53,13.14-5.38-1.47-10.51-1.5-13.73-4a102.13,102.13,0,0,1-30.07-36.77,17.93,17.93,0,0,1-1.13-3.78c-.85-3.78,3.89-8.34,7.5-6.86,5.48,2.24,10.74,5,17.27,8.13,5.4-3,11.15-6.09,16.87-9.26,11.05-6.11,21.92-12.33,34.2-16.18,7.34-2.29,13.77-7.75,20.3-12.24,8.79-6,17.08-12.43,28.81-12.15,4.16.1,8.73-2.89,12.54-5.35,7.27-4.69,14-10.19,21.2-15s20.39-.57,23.28,7.5a8.21,8.21,0,0,1-.07,5.82c-4.65,9.12-11,16.4-22.68,18.54-1-4.1-1.89-7.57-3.09-12.39-10.9,6.42-21.2,12.26-30.58,19.55-9.9,7.68-19.48,15.79-30.09,24.43a35.22,35.22,0,0,0,1.86,22.08c1.41,3.28.13,7.71.07,11.62Z" transform="translate(2220.94 2221.75)"/><path d="M-487,2315.46c4.33,5.2,8.67,9.42,11.67,14.44,1.39,2.32,1,6.57-.15,9.24-.73,1.67-4.52,2.93-6.83,2.76a48.49,48.49,0,0,1-13.54-2.83c-9.31-3.52-18.3-7.93-28.54-8.21a11.72,11.72,0,0,1-3.85-1c-5.05-2-8.6-7.94-7.64-12.62.91-4.39,4.67-7.46,10.25-7.87,2.61-.19,5.27.39,7.92.51,2,.09,3.92,0,5.76,0,7.35-5,10-12.85,12-20.36,5.54-20.58,14.23-40,21.09-60,1.46-4.27,2.1-8.82,3-12.83-8.88-6.7-8.85-6.86-21.28-5-2.37,6.23-4.74,13-7.54,19.68-2,4.83-7.41,7.58-11.16,5.87-4-1.8-6.37-5.23-5.95-9.53,1.27-12.79,6.66-24.23,13.15-35,2.56-4.27,7.83-5.3,12.54-3.92,8.27,2.42,16.36,5.47,24.5,8.34,9.35,3.3,18.68,6.68,28,10.07,3.11,1.13,6.25,2.22,9.23,3.65,15.58,7.51,17.17,11.29,11.79,28.16-1.81,5.69-3.82,11.34-6.09,16.86-2.13,5.19-5.95,7.44-8.85,5.7-4.24-2.56-3.85-6.66-3-10.56s2.34-7.61,3.44-11.44c3.22-11.18,1.63-13.9-9.58-16.52-3.18-.74-6.39-1.35-10.69-2.26-1.78,3.09-4.35,6.16-5.49,9.7q-11.88,36.83-23.16,73.84C-487.14,2308-486.77,2312.13-487,2315.46Z" transform="translate(2220.94 2221.75)"/><path d="M-1416.52-1166.81c1.53,2.88,2.43,5.21,3.85,7.16,5.89,8.06,11.55,16.32,18,23.89,8.13,9.53,17,18.47,26.61,28.87,9.17,3.39,18.71-2.87,30.27-5.86-.42,3.85.2,7.2-1.08,8.29-7.05,5.93-7.27,14-7.41,21.93-.22,12.62,7.48,20.69,20.49,22,3.2.33,6.4.56,9,.78,3.33,5.77,1.49,10.13-1.16,14a109.32,109.32,0,0,1-33,31.42,18.89,18.89,0,0,1-5.63,1.83c-3.94.92-8.28-3.42-7-7.25,1.92-5.59,4.3-11,6.74-17.15-4.34-6.75-8.9-13.25-12.83-20.1-5.28-9.19-9.8-18.81-15.16-28a190.22,190.22,0,0,0-13.34-19.62c-6.9-8.94-14.64-17-15-29.6-.11-4.09-3.68-8.38-6.38-12-4.73-6.42-10.2-12.3-15-18.65a16.68,16.68,0,0,1,4.12-24.24c1.89-1.2,5.65-1.61,7.37-.52a93,93,0,0,1,15.5,12.07c2.65,2.61,5.09,7.22,1.34,10.45C-1408-1165.55-1412.14-1166.81-1416.52-1166.81Z" transform="translate(2220.94 2221.75)"/><path d="M-370.1-1872.6c12.65,13,13.62,16.47,9.46,33.38l-11.81-8.37c2.78,19.5,1.54,38.14,8.06,56,2.43,6.63,2,14.32,2.78,21.21,7.18,7.17,15.63,10.28,25.24,10.81.86,0,2.29,1.86,2.27,2.82,0,1.75-.83,4.91-1.57,5-7.42.77-11.64,5.7-15.72,11-10.88,14.25-9.33,24.43,5.33,35,1.56,1.13,2.95,2.47,5.31,4.47-1.49,2.79-2.24,6.7-4.51,8-16.49,9.74-34.5,13.45-53.55,11.58-1.56-.15-4-2.2-4.14-3.57-.26-2.3.23-5.59,1.76-7,4.28-4,9.26-7.31,14-10.93,0-6.41.29-12.36-.06-18.27-.75-12.62-1.14-25,1-37.73,1.41-8.24-.36-17.15-1.52-25.66-1.36-10-2.93-19.51,2.32-29.13,2-3.7,1.86-9,1.57-13.44a150.87,150.87,0,0,0-3.13-23.72c-2-8.67,1-14.19,8.49-17.94C-376.13-1870.23-373.64-1871.11-370.1-1872.6Z" transform="translate(2220.94 2221.75)"/><path d="M886.83,2230.64c-6.46,4.56-11.8,8.29-17.09,12.09-4.39,3.16-5.45,7.49-3.52,12.34s4.3,9.74,6.63,14.53a305.78,305.78,0,0,1,20.73,53.9,48.55,48.55,0,0,0,2.77,7.47c4.19,9.2,7.62,10.84,17.22,8.44.65-.16,1.31-.29,1.93-.51,23.35-8.08,26.76-5.09,21.7-32.79-.36-2-.84-3.92-1-5.9-.48-4.87,1.9-10.07,4.85-9.56,3.65.64,9.1,2,10.16,4.59a237,237,0,0,1,11.13,33.87c.73,2.94-1.91,8.2-4.62,10.19-6.35,4.67-13.27,9.75-20.69,11.5-15.1,3.56-29,9.86-43,15.89-7.46,3.2-15.11,5.35-23.31,3.61-4.13-.87-8-3-8.16-7.45-.09-2.83,1.59-6.32,3.59-8.48,3.08-3.32,7.12-5.76,11.41-9.08-2.42-13.93-5-27.69-10.21-40.47a215.76,215.76,0,0,1-12.88-43.92c-1.65-9.34-3.91-10.58-13.6-10.66-3.94,0-7.89-.19-11.83-.4-.48,0-.92-.74-1.88-1.57.43-1.46.46-4.26,1.53-4.74q20.91-9.48,42.1-18.33C876.12,2223,881.18,2223.76,886.83,2230.64Z" transform="translate(2220.94 2221.75)"/><path d="M1025.69,2294.52c-6-17.34-10.15-34.68-19-50.53-3.82-6.84-5.86-14.76-8.09-22.37-1.86-6.34-2.44-13.1-5.82-16.28-9.25-6.59-18.71,3.89-25.89-4.1.81-1.91,1-3.67,1.85-4.14,11.7-6.27,23.44-12.49,35.3-18.46,8.68-4.37,8.77-4.2,20.61-.37-1.57,11.2-16.41,11.19-18.88,23.24,1.64,3.51,3.46,8.45,6.1,12.9,11.2,18.87,21,38.39,28.32,59.1a44.73,44.73,0,0,0,4.55,8.83c3.68,5.84,7.1,7.19,13.4,5.3,3.17-.95,6.18-2.41,9.28-3.59,16.69-6.4,22.55-7.74,15.26-28.93-1.48-4.31-1.89-9.08-2.25-13.68-.32-4,4.94-7.6,8.39-5.63s7.2,4.22,8.84,7.38c4.26,8.23,7.57,17,11,25.62,2.17,5.52,1,11-3.53,14.52-6.76,5.24-13.7,11.42-21.59,13.76-13,3.85-24.33,10.42-36.21,16.27-5.91,2.91-12.15,5.62-18.55,7-4.2.88-9.14-.22-13.39-1.56-4.7-1.48-6.18-8.09-2.89-11.57C1016.52,2302.92,1021,2299,1025.69,2294.52Z" transform="translate(2220.94 2221.75)"/><path d="M63.3,2331.78c-3.06,17.51-5.72,32.55-8.28,47.61a36.74,36.74,0,0,0-.6,8c.64,13.83,1.45,27.66,2.22,42,4.86,4.52,11.67,4.62,18.07,6.07a22.5,22.5,0,0,1,8.83,4c3.32,2.62,4.88,7,2.78,10.68a11.69,11.69,0,0,1-7.7,5,46.75,46.75,0,0,1-15.88-.37c-13.73-3.06-27.69-3.31-41.56-4.73a67.26,67.26,0,0,1-19.07-5.07c-2-.85-3.19-5.61-3.09-8.53.06-1.7,3.34-4.57,5.31-4.69,8.53-.52,17.11-.22,25.44-.22,5-7.21,1.44-14.08,2.44-20.42,2.49-15.79,3.89-31.74,6.28-47.54,1.81-12,2.09-23.75-1.62-36.8l-27.66-10c5.08-7.92,11.87-9.95,18-8.58,17.8,4,35.84,1.8,53.67,3.65,1.32.14,3,0,3.87.69,2.35,2,5.41,4.12,6.25,6.8,1.16,3.74-2.22,5.87-5.55,6.8C78.44,2328,71.41,2329.69,63.3,2331.78Z" transform="translate(2220.94 2221.75)"/><path d="M-953,1947.36c-8.94,14.62-16.14,27.26-27,37.31-.58.54-2.35-.2-4.48-.44-1.49-7,3.6-12.3,5.3-18.4,2.51-9,1.07-16.92-4.74-24.35-10.91-13.94-25.06-14.7-40.67-4.34a90,90,0,0,0-33.24,39c-6.13,14.1-4.6,28.65.06,42.91,1.6,4.88,5.52,7.76,10.65,7.47,11.26-.62,22.68-.9,32.06-8.77a40.79,40.79,0,0,1,8.37-5.32c4.08-2,10.12,2.5,9.36,7.12-.52,3.12-1.58,6.58-3.51,9a51.07,51.07,0,0,1-32,18.61,30.17,30.17,0,0,1-19.26-3.08c-29.18-14.53-36.19-30.83-25.44-61.73a122.42,122.42,0,0,1,36.5-53.89c10.38-8.85,22.19-14.6,36.28-14.36,9.83.16,19.11,3,24.42,11.25C-974,1935.22-965.59,1942-953,1947.36Z" transform="translate(2220.94 2221.75)"/><path d="M-109.43-1939.81c12-8,25.17-9,40.58-9.38-2.34,7.87-4,13.51-5.69,19.13-2.15,7.12-3.19,14.24-1.07,21.62,2,6.87,5.23,13.53,2.27,21.17-.74,1.93,1.08,5,2.09,7.44,12.38,29.28,16.29,60.24,18,91.59.31,5.78,1.2,12.17-6.18,17.51l-19.39-4.84c-.92-3.77-2.18-6.31-2-8.76.45-7.44-3.12-12.42-8.36-17.14-13.2-11.86-22.57-26.17-26.26-43.8-.41-1.94-1.22-4.09-.75-5.85.61-2.33,1.81-5.38,3.64-6.25s5.83-.4,7.14,1c4.42,4.87,7.85,10.63,12.15,15.63,1.51,1.76,5.1,3.73,6.59,3.06,2.61-1.17,4.49-4.2,6.34-6.7a4.61,4.61,0,0,0,.51-3.81c-7.61-19-5.59-39.46-8.8-59.12-2.09-12.75-5.9-23-18.53-28.27C-108.13-1935.9-108.42-1937.75-109.43-1939.81Z" transform="translate(2220.94 2221.75)"/><path d="M-156.41-1932.13c4.36,8.64,10.71,15.2,9.48,25.43l-13.5,3.16c-.57,1.13-1.6,2.25-1.64,3.41-.4,11.37,3.27,20.85,13.83,27.37-3.62,8.92-2.8,17.73-.27,26.87,2.46,8.89,3.51,18.18,5.1,27.3.35,2,.14,4,.58,5.95,3.61,15.81,7.4,31.46,26.12,36.65,2.3.64,4.07,3.17,6.32,5-1.63,10.44-8,16.26-17.47,15.84-10.08-.45-19.68-.88-29.32,2.91-4.66,1.83-5.91.31-11.39-8.69.68-1.54,1-4,2.33-5,9.86-6.76,11.8-15.25,6.61-25.82a9.78,9.78,0,0,1-1.1-5.79c2.94-13.59-2.08-26.06-4.55-39-3.6-18.92-6-38.11-8.06-57.28-1.21-11.37-4.56-20.68-15.34-26.08a12.9,12.9,0,0,1-3.08-2.51c-3-3-1.69-8.89,2.47-9.46,7.2-1,14.49-1.46,21.76-1.72C-164.29-1933.67-161-1932.76-156.41-1932.13Z" transform="translate(2220.94 2221.75)"/><path d="M1418.28,2107.31c-5.53-17.65-12.61-32.79-14.3-49.65-.57-5.69-4.17-11.15-6.78-16.53-4.1-8.44-7.89-16.67-6.68-26.66.52-4.28-1.39-9.09-3-13.33-2.41-6.2-5.58-12.09-8.4-18.13-1.78-3.8-2.15-7.63-.22-11.53,5-10.07,13.46-11.18,20.29-2.42,3.66,4.69,7.6,9.48,5.68,16.43l-9.81,1.92c4.75,12.93,9.13,25.31,16.61,36.54,4.35,6.54,7.22,14.07,11.49,22.62l26,2c-1.11,2.29-1.92,4.36-3.06,6.22-2.7,4.44-6.39,8.46-8.21,13.21-4.89,12.83-.77,20.87,12.64,26.46,1.8.75,3.64,1.4,5.39,2.24.51.24.77,1,1.41,1.88-.34,1.6-.13,4-1.23,5.31-10.6,12.73-24.42,20.25-40.39,23.93-1.64.38-4.74-.4-5.27-1.53-1-2-1.36-5.21-.39-7.08C1412.1,2115.13,1415.21,2111.59,1418.28,2107.31Z" transform="translate(2220.94 2221.75)"/><path d="M584.85-2025.28c-15.26.47-30.52,1.26-45.78,1.36-51.94.32-103.69-3.44-155.42-7.62-57-4.6-114.13-8.39-171.77-6.88,12.09-4.72,24.42-5.62,36.86-6.55,65.89-5,131.61-1.82,197.35,3.2C492.46-2038.23,538.7-2033.58,584.85-2025.28Z" transform="translate(2220.94 2221.75)"/><path d="M120.81-203.13c.55,26.51,1.44,49.66,1.41,72.81-.06,41.94-.62,83.87-1.11,125.81C121,6.8,120.12,18.1,120,29.41c-.14,10-.74,20.44,11.54,26.66-8.19,4.12-12.8.55-16.4-4-6-7.56-7.69-16.82-8.67-26.17-5.12-48.73-5.33-56.66.9-107.46,4-32.39,7.1-64.81,8.19-97.43C115.77-186.13,115.67-193.38,120.81-203.13Z" transform="translate(2220.94 2221.75)"/><path d="M741.65,2345.9,761.56,2356c-4.45,3.49-8.73,6.15-12.15,9.65-9.84,10.06-9.6,16.49.33,27,1.34,1.41,2.59,2.9,3.88,4.36-1.52,7.55-7.55,8.76-13.32,10.06-10.7,2.41-21.46,6.23-32.18.93-.72-9.89,10.57-8.81,11.87-16-1-21.71,5.15-43.36,2.12-65.34-.27-2-.48-4.19.2-5.94,5-12.77,4.53-25.89,3.08-39.16-.57-5.23,2-8.72,6.74-11,4.92-2.38,9.46-1.26,11.59,3.53a35.13,35.13,0,0,1,2.34,7.55c1.22,6.35,0,8-8.45,12.43C733.67,2311.46,741.68,2327.87,741.65,2345.9Z" transform="translate(2220.94 2221.75)"/><path d="M-800.25,2201.59c-7.52,4.24-14,.12-20.22-3.43-8.33-4.76-17.8-8.62-21.24-19.34,5.68-5.94,12.14-.9,18.24-3.34a25.59,25.59,0,0,0,4-3.08c8.57-9.22,16-19.5,26.71-26.68,3.16-2.13,5.39-5.82,7.67-9,5.74-8.13,10.84-16.58,21.15-20.3,3.31-1.19,5.7-5.36,8.15-8.47,3.29-4.16,6-8.76,9.35-12.9,3.69-4.6,10.5-5.44,16.17-2.4,3.56,1.91,4.5,6.68,1.8,12.41-1.65,3.49-4.16,6.58-6.72,10.53l-9.16-3.88c-14.42,10.65-18.91,28.55-29.8,40.2-2.24,9.84,4.83,15.58,7.82,23.89-5.91-.55-10.36-1.29-14.82-1.31-6.11,0-11.91,1.21-16.1,6.35s-5.33,10.52-2.38,16.68C-799.22,2198.4-800,2199.91-800.25,2201.59Z" transform="translate(2220.94 2221.75)"/><path d="M-1424.74,1543.69l-44,26.77c-5.63,7-2.3,15.12-2.15,23.69-2.91-.78-5.09-.71-6.16-1.76-6.31-6.18-14-7.7-22-5.84-9.13,2.11-11.53,10-12.38,17.87-8.16,2.41-12-2.88-15.4-7.46-6.51-8.65-14.94-16.63-14.51-28.33,8-5.32,11.65,3.34,21.47,2.24,15.8-9.7,39.17-11.76,58-24.87,1.59-1.11,3.66-2.37,5.43-2.26,15.79,1,27.11-9.37,40.1-15.49.55-.26,1.29-.11,3.1-.24a33.49,33.49,0,0,1,6,3.23c2,1.56,3.43,3.8,5.3,6-3,8.61-8.2,13.71-17.12,15.37C-1420.9,1549.8-1422.51,1547.25-1424.74,1543.69Z" transform="translate(2220.94 2221.75)"/><path d="M653.18-76.58c15.91,7.55,19.53,18.79,19.5,31.17-.07,36.5-40,62.68-73.87,48.83-17.88-7.31-26.9-21-28.13-39.89-1-15.5,5-28.64,15.93-39.37,11.1-10.89,24.27-15.92,43-11.51C623-86.29,619-85.95,615.22-85c-18.36,4.5-32.62,21.45-33.73,39.86-1.58,26,19.85,43.23,44.48,34.86,18.17-6.18,29.85-19.24,34.52-38.18C662.73-57.55,659.22-65.35,653.18-76.58Z" transform="translate(2220.94 2221.75)"/><path d="M190.83,2384.39c9.36,2.09,8.68,10.54,12.8,15.29a6.8,6.8,0,0,0,5,2.24c1.59-.2,3-2.09,4.41-3.36a2.73,2.73,0,0,0,.71-1.78c.66-17.22,1.07-34.45,2-51.66.42-8.13-5.8-12.84-10.14-19.66,9.87-4.63,18.71-3.16,27.29-2.46.6,2.15,1.61,3.77,1.17,4.45-10.4,16.07-10.2,34.08-7.88,51.7,2.9,22,2.05,43.64-.72,65.38-.46,3.6-2.92,6.94-4.78,11.14l-14.44-5.41a44.15,44.15,0,0,0-9.17-27.31c-6.14-8.06-8.59-18-9.21-28C187.67,2391.5,189.78,2387.91,190.83,2384.39Z" transform="translate(2220.94 2221.75)"/><path d="M-1300.72,1652c10,5.57,15.53,12.7,22.08,21.12-6,2.09-10.44,3.21-14.48,5.13-4.73,2.25-9.86,4.44-13.54,8-8.5,8.16-17.68,15.46-24.92,25.2-11.54,15.57-27.15,27.32-42.76,38.73-2.56,1.88-5.93,2.64-10.14,4.42l-6.15-13.18c.91-2.89.9-4.66,1.75-5.28,7-5.14,9-12.66,10.78-20.61,2.95-13.3,9.1-24.72,20.07-32.36,5,1.26,6.93,3.65,5.77,7.52-1.34,4.44-3.46,8.66-4.59,13.14-.36,1.44.91,4.05,2.23,5s3.76.72,5.6.42c1.17-.19,2.22-1.37,3.21-2.24q15-13.11,30-26.26C-1304.19,1670.56-1303.87,1670-1300.72,1652Z" transform="translate(2220.94 2221.75)"/><path d="M-1422.53,1689.45c20.39-18,40-35.63,59.89-52.93,15-13,15.11-12.86,19-32.16,3,1.44,6.43,2.06,8.09,4.13,4,5,7.24,10.78,10.93,16.47-3.52,6-6.46,11-8.65,14.81-6.86,3.12-7.91-3-12.86-4.54-2.25,1.72-6.25,3.37-8,6.34-4.38,7.66-7.68,15.2-16.55,19.92-7.27,3.87-12.5,11.58-18.65,17.57-.47.45-1.13.71-1.62,1.15-9.95,9.08-19.53,18.24-16.12,33.85.43,2-1.32,6-2.91,6.49-2.77.93-6.41.52-9.28-.5-2.26-.81-4.1-3.2-5.76-5.19-4.2-5-8.1-10.3-12.31-15.32-2.34-2.79-3.86-5.85-1.28-8.77a10.2,10.2,0,0,1,6.67-2.92C-1428.75,1687.74-1425.57,1688.87-1422.53,1689.45Z" transform="translate(2220.94 2221.75)"/><path d="M180.45,2449.07c-2,6.64-6.86,9.43-13.52,8.88-7.88-.65-15.75-1.68-23.56-2.9-1.66-.26-4.14-1.85-4.37-3.16-.41-2.36-.26-6.4,1.14-7.22,7.41-4.33,10.25-10.08,7.81-18.35,4.76-21.7,1.19-43.78,3-65.64,1.76-21.11,1.28-21.15-8.13-37.24,8.53-4.71,15.93-5.24,23.3-.52,7,4.47,7.77,11.63,7,19.41-2.24.76-4.08,1.94-5.88,1.88-4.24-.13-6,1.92-6.35,5.77-.12,1.33.24,2.77-.17,4-2.52,7.37,9.18,11.49,4.14,19.69-3.76,6.12-1,13-.61,19.56a81.8,81.8,0,0,1-.65,13.88c-1.64,15.36.4,29.21,14.8,38.4C179.36,2446.12,179.71,2447.73,180.45,2449.07Z" transform="translate(2220.94 2221.75)"/><path d="M468.63-134.37c.79,1.83,1.59,3.66,2.87,6.64,1.9,0,4.44.44,6.78-.08,11-2.44,22-5.44,33.05-7.67,9.77-2,19.72-3.26,28.72,4.38-8.27,10-19.06,12-30.71,11.53-12-.51-24-1.06-35.91-2-6.76-.5-12.9.09-19.34,3-18.58,8.31-38.24,11-58.55,9.2-25.13-2.17-50-5.78-74.74-12.73,2.36-4.8,6-3.19,8.63-3.06a762.16,762.16,0,0,0,87.87-.9,173.76,173.76,0,0,1,33.89,1.15c8.75,1.13,14-2,18-9Z" transform="translate(2220.94 2221.75)"/><path d="M-1624-1057.72c4.23,5.91,4.44,12.11,3.23,18.84-2.31,12.75-8.23,23.9-15,34.63-15,23.8-33.65,44.69-53.26,64.73-4.43,4.54-9.26,8.69-17.34,16.2,3.69-13.56,8.88-21.2,13.3-29.08C-1675.41-983.9-1633.63-1047.47-1624-1057.72Z" transform="translate(2220.94 2221.75)"/><path d="M-1807.84-753.19c1.92-5.4,2.74-9.17,4.51-12.41,6.69-12.22,13.9-24.15,20.53-36.41,6.92-12.81,13.21-26,20.12-38.79a115.11,115.11,0,0,1,25.92-32c1.37-1.21,3.63-1.44,5.53-1.95.37-.09,1,.66,1.47,1,.13.6.59,1.41.35,1.75-13.09,18.68-20.44,40-28.41,61.08a256.25,256.25,0,0,1-13.86,30.8,56.59,56.59,0,0,1-27,25.56C-1800.82-753.64-1803.43-753.82-1807.84-753.19Z" transform="translate(2220.94 2221.75)"/><path d="M-1195.35,1871c1,.26,3.17.25,4.64,1.26,21.76,15,43.54,30.08,65,45.48a85.58,85.58,0,0,1,14.38,13.52c3.74,4.29,1.48,10.33-3.89,13.16-4.48,2.36-9.15,2.7-13.27.17a143.08,143.08,0,0,1-17.68-12.64q-22.69-19.23-44.86-39.1a54,54,0,0,1-9.73-12.1C-1202.72,1877.45-1199.51,1871.55-1195.35,1871Z" transform="translate(2220.94 2221.75)"/><path d="M1201.68-1864.42c14.55,4.93,151.92,71.73,160.34,77.49C1315.76-1789.29,1230.62-1829.73,1201.68-1864.42Z" transform="translate(2220.94 2221.75)"/><path d="M-1887.19-579c4.7,47.13-19.14,110.78-54.47,142.16,1.54-5.54,2.14-9.23,3.56-12.57,7.28-17.07,14.95-34,22.14-51.09,9.52-22.63,17.69-45.73,22.8-69.83C-1892.41-573.89-1892.76-578.59-1887.19-579Z" transform="translate(2220.94 2221.75)"/><path d="M-2003.86-187.79c2.68-43.75,11.66-82,23.36-100.56,3.82.84,2.61,4.11,2.63,6.29.19,20.61.15,41.21-4.44,61.48-2.36,10.45-5.33,20.7-13,28.59C-1997.29-190-2000.56-189.36-2003.86-187.79Z" transform="translate(2220.94 2221.75)"/><path d="M-304.12-1757.57c3,.63,3.78.6,4.3.93a34,34,0,0,1,4.79,3.41c10.67,9.72,21.27,19.5,31.81,29.19-2.7,7.73-8.95,9.55-15.26,11.63-14.21,4.67-15.17,4.84-29.72,1.53,1.23-7.36,3-14.8,3.6-22.34S-306.34-1748.72-304.12-1757.57Z" transform="translate(2220.94 2221.75)"/><path d="M1776.44-1174.64c-11.86.37-17.08-8.23-23.51-14.59-5.08-5-10.19-10.41-9.67-19.54,7.64-2.42,15.2-4.29,22.33-7.21s12.93-9.27,22.73-10.56C1786.77-1207.95,1779.49-1191.74,1776.44-1174.64Z" transform="translate(2220.94 2221.75)"/><path d="M-1295.69-1086c.88-16.28-12.71-25.76-17.82-38.65,2.39-4.93,6-3.63,8.89-3,13.67,2.68,27.29,5.63,41,8.5.55,1,1.67,2.07,1.69,3.17.27,11.57-9.3,17-15.69,24.33C-1281.45-1087.31-1286.07-1083-1295.69-1086Z" transform="translate(2220.94 2221.75)"/><path d="M-1483.37-1222.79c-12.11,30.92-26.91,49.2-49.64,60.31-.89-17.37,7.19-30.55,16.71-42.83C-1506.54-1217.91-1496.16-1222.86-1483.37-1222.79Z" transform="translate(2220.94 2221.75)"/><path d="M315.34,478.58c5,22.44,10.06,44.92,11.56,67.94.58,8.91.79,18.48-5.56,27.82-2.2-2.43-4.56-3.9-5.17-5.91-2.31-7.54-5.55-15.22-5.73-22.91-.52-22.32.27-44.66.54-67Z" transform="translate(2220.94 2221.75)"/><path d="M-1974.81-320.74c4.77-19.22,7-38.13,10.31-56.82a107.06,107.06,0,0,1,7.2-22.66c2.54-6,6-11.95,13.47-13.33.44,1.31,1.41,2.65,1.16,3.71-4.22,18-8,36.24-13.18,54-2.92,10.05-7.94,19.54-12.52,29C-1969.56-324.3-1972.61-322.73-1974.81-320.74Z" transform="translate(2220.94 2221.75)"/><path d="M293.59-206.72l5.06,78.54c-7.54,1.77-12.39-1.53-14.26-6.42-2.53-6.63-4.6-14.18-4-21.09,1.28-15.19,4.27-30.23,6.76-45.3.38-2.32,1.82-4.46,2.77-6.68Z" transform="translate(2220.94 2221.75)"/><path d="M-1990.74,706.85c-11.27-2.65-17.35-9.28-19.79-18.84-3.28-12.84-3.57-26-2.44-40.12l21.89,7c2.95,9.27-3.42,17.16-2.71,25.66S-1991.85,697.47-1990.74,706.85Z" transform="translate(2220.94 2221.75)"/><path d="M-1611.64-1071c6.21-7.8,11.6-14.32,16.71-21,4.79-6.3,9-13,14-19.21,6.6-8.31,14.78-14.34,28.66-17.23-5.83,8.85-10,15.19-14.18,21.57-4,6.09-7.56,12.44-11.83,18.3a121.42,121.42,0,0,1-12.79,15C-1596.14-1068.61-1602.37-1067-1611.64-1071Z" transform="translate(2220.94 2221.75)"/><path d="M1473,2037.9l43.39,20c-6.51,14.74-18.33,20.33-32.5,24C1480.42,2068.1,1477.2,2055.08,1473,2037.9Z" transform="translate(2220.94 2221.75)"/><path d="M-1919,938c0,14.43.15,27.48-.08,40.52-.07,4.49-3,7.05-7.51,7.64-5.16.67-9.59-2.05-10.22-6.9a114.55,114.55,0,0,1-.51-13.76c-.06-12.18,0-12.18-6.77-24C-1937.18,936.66-1929.69,936.19-1919,938Z" transform="translate(2220.94 2221.75)"/><path d="M-2043.77,353c15.13.72,18.63,3.42,18,13.6a68.28,68.28,0,0,1-3,15.38c-2.42,8.1-5.39,16-7.88,23.33-5.22,1.78-7.54-.67-8.35-4a41.15,41.15,0,0,1-1.09-11.71C-2045.56,377.81-2044.63,366-2043.77,353Z" transform="translate(2220.94 2221.75)"/><path d="M-1377.62-1160.49c15.7,4.48,39.55,16.71,46.84,24.76a37.49,37.49,0,0,1,7.74,13.29c.68,2.11-1.87,6.1-4,8-1.3,1.13-5.69.83-7-.5C-1348.57-1129.73-1362.74-1144.82-1377.62-1160.49Z" transform="translate(2220.94 2221.75)"/><path d="M-1823.12-679.4c-4,9.12-7.09,17.14-11,24.75-4.22,8.29-11.14,12.1-22.54,10.91,4.3-8.17,9.42-14.55,11-21.69,1.57-7.34-.37-15.43-.76-23.09,2.88-3.65,6.22-2,8.88-.44C-1832.58-686.11-1827.95-682.64-1823.12-679.4Z" transform="translate(2220.94 2221.75)"/><path d="M1772.84-1248.25c5.73-3,12.18-5.13,17-9.18,11.55-9.65,22.35-20.21,35.58-32.35-.89,4.56-.78,6.92-1.78,8.63-5,8.52-9.87,17.15-15.56,25.19a104,104,0,0,1-14.41,16.06c-4,3.64-9.07,5.1-14.65,2.75s-3.92-7.74-5.52-11.76Z" transform="translate(2220.94 2221.75)"/><path d="M-341.66-1823.35c11.74,17,21.35,30.43,26.87,46.07,1.89,5.32,1.38,11.7,1,17.54-.21,3.37-3.14,5.71-6.92,6-4.11.27-6.12-2.43-6.88-5.8C-332.07-1779.42-336.37-1799.29-341.66-1823.35Z" transform="translate(2220.94 2221.75)"/><path d="M780.39,2390.47c1.2-10.81,2.39-21.6,3.72-33.58,7.67,1.73,11,7.8,15.52,12.08,4.27,4.07,8.07,8.62,13,14-2.42,2.05-4.78,5.27-7.93,6.51C794.69,2393.4,789.52,2393.29,780.39,2390.47Z" transform="translate(2220.94 2221.75)"/><path d="M-776.27,2213.92l25.26-22.76c7,12.28,2.58,24.89,5.69,36.48C-759.28,2229.71-765.44,2226.85-776.27,2213.92Z" transform="translate(2220.94 2221.75)"/><path d="M-1495.67,1626.18l31.29-10.43c.15,11.18-1.2,15.63-10.51,35.24C-1487.35,1647-1491.6,1642-1495.67,1626.18Z" transform="translate(2220.94 2221.75)"/><path d="M-1986.57,790.36c-5.15-8.45-1.48-14.42.67-20.57,4.72-13.48,5.5-26-6.2-36.8-1.55-1.43-.66-5.48-1-9.8,3.45,1.8,5.68,2.23,6.66,3.58,6.16,8.56,9.26,19.09,18,26.13,2,1.62,1.19,7.32.92,11.08-.12,1.72-1.8,3.58-3.21,4.91-3.87,3.66-8.51,6.63-11.78,10.72C-1984.77,782.46-1985.27,786.73-1986.57,790.36Z" transform="translate(2220.94 2221.75)"/><path d="M653.21-592.43c2.61,14.25-2.24,25.45-9.49,35.54a15.82,15.82,0,0,1-17.51,6.42c-2.34-6.65.57-11.82,4.27-16.29C637.49-575.19,645-583.21,653.21-592.43Z" transform="translate(2220.94 2221.75)"/><path d="M-215.11-595l-20.5,6.75-7.65,22.34c-8.45-5.45-11.8-12.06-10.57-20.94,1.07-7.71,5-12,12.81-13C-232.4-601-224.13-599.68-215.11-595Z" transform="translate(2220.94 2221.75)"/><path d="M1429.57,1998.62c7.91,7,16.13,13.77,23.59,21.26,4.13,4.15,7.13,9.49,10.32,14.49a12.51,12.51,0,0,1,1.37,5.72c.27,3.79-1.84,6.77-5.25,7.38-2,.37-5.46-1.15-6.5-2.89-7.17-11.9-13.84-24.12-20.77-36.18-1.57-2.72-3.54-5.21-5.32-7.81Z" transform="translate(2220.94 2221.75)"/><path d="M1443.34-1734.34c-8.42-1.16-17-1.58-25.21-3.65-10-2.53-17.88-8-18.11-20.2C1412.18-1756.66,1422.29-1751.79,1443.34-1734.34Z" transform="translate(2220.94 2221.75)"/><path d="M655.25-601c-5.67-3.18-11-7-16.94-9.26-5.38-2.08-11.4-2.5-19.22-4.07,9-7.22,18.18-8.91,27.46-9.13a13.52,13.52,0,0,1,13.63,9.4C662.12-608.53,660.86-603.82,655.25-601Z" transform="translate(2220.94 2221.75)"/><path d="M-244.26-558.66l21.12,35.06c-3.31,4.67-8.49,6.69-13.4,3.92a19.74,19.74,0,0,1-8.25-10.46C-247.37-538.4-246.83-547.09-244.26-558.66Z" transform="translate(2220.94 2221.75)"/><path d="M-1850.83-631.06c-1.72,10.39-11.67,12.84-16.5,19.36-.11,1.39-.57,2.76-.24,3.9.87,3.09,7.48,5.85,1.18,9.16-3.29,1.73-6.25-1.42-7.41-4.73-1.3-3.71-2.63-7.6-2.79-11.46-.27-6.15,1.61-12.07,6.81-15.81C-1864-634.79-1857.74-634.6-1850.83-631.06Z" transform="translate(2220.94 2221.75)"/><path d="M-1431.73,1577.07c-6.63,8.17-13,16.58-20,24.4-3.52,3.92-8.31,6.89-14.1,5-1.5-.48-2.81-2.43-3.56-4a3.77,3.77,0,0,1,.76-3.57c11.59-8.34,23.3-16.51,35-24.72Z" transform="translate(2220.94 2221.75)"/><path d="M176.4,393.28c-7.68-9.13-9.18-18.93-9.28-28.65,0-3.95,3.56-7.94,5.75-12.4,8.24,2,10.24,7.4,9.82,13.43A88.11,88.11,0,0,1,176.4,393.28Z" transform="translate(2220.94 2221.75)"/><path d="M-762.81,2178.56l22.45-38c-.1,11.71-1.13,22.9-5.91,33.16a24.23,24.23,0,0,1-7.25,9.05C-757.32,2185.57-761,2184.57-762.81,2178.56Z" transform="translate(2220.94 2221.75)"/><path d="M-2038,247.69c-2,3.68-3.77,7.75-6.18,11.41-4.14,6.27-3.09,11,3.22,15,.78.48.75,2.26,1.1,3.43-5.76,4.94-8.93,5.63-10.8,2.07-5.26-10-5.82-20.37.18-30.15C-2048.1,245.55-2044,242.38-2038,247.69Z" transform="translate(2220.94 2221.75)"/><path d="M-2004.1-172.74-1988-151c-7.54,7.8-15.7,4.59-25.09,4.19C-2010-155.71-2007.46-163-2004.1-172.74Z" transform="translate(2220.94 2221.75)"/><path d="M761.79,2315.41a52.69,52.69,0,0,1,15.86,32.84c.6,6-1.32,7.57-10.35,9,.38-14.43-8.44-27.5-5-42.37Z" transform="translate(2220.94 2221.75)"/><path d="M-123.95-1860.55c-10.19-3-11-10.85-13-17.16-1.73-5.48-1.81-11.53,4.62-16.23C-123-1884.85-119.31-1874.88-123.95-1860.55Z" transform="translate(2220.94 2221.75)"/><path d="M-178.49-1371.25c-3.19,7-4.06,11-6.49,13.45-1.79,1.83-5.73,2.53-8.48,2.12-1.75-.26-3.75-3.24-4.42-5.38-1.12-3.54.94-6.38,4.32-7.41S-186.31-1369.86-178.49-1371.25Z" transform="translate(2220.94 2221.75)"/><path d="M-1358,1675.18c2.31-11.58,7.16-17.08,16-20C-1341.23,1667.54-1342.13,1668.74-1358,1675.18Z" transform="translate(2220.94 2221.75)"/><path d="M181.58,2380.88c-4.66-9.63-6.75-16.42-1.54-24C188.27,2366.36,188.33,2366.89,181.58,2380.88Z" transform="translate(2220.94 2221.75)"/><path d="M762.31,2314.92c-1-.48-2.4-.74-2.87-1.54-.33-.56.61-1.87,1-2.84.36.45.93.86,1,1.37a31,31,0,0,1,.33,3.49Z" transform="translate(2220.94 2221.75)"/><path class="cls-1" d="M73.19,367c9.37-7,16.75-17.33,30-16.09,3.33,4.56,6,8.92,9.41,12.7,2.91,3.26,8.39,4.62,7.12,10.65C104.28,375.59,80.32,372,73.19,367Z" transform="translate(2220.94 2221.75)"/><path class="cls-1" d="M2008.93-1091.06l-1.23.93-1-2.09c.54-.11,1.18-.45,1.59-.26S2008.74-1091.56,2008.93-1091.06Z" transform="translate(2220.94 2221.75)"/><path d="M707.83,413.51v-7.92c3.23,2.7.83,5.38-.11,8.11C707.65,413.79,707.83,413.51,707.83,413.51Z" transform="translate(2220.94 2221.75)"/><polygon points="2900.14 2614.3 2901.88 2614.72 2900.44 2615.29 2900.14 2614.3"/><path d="M698.72,145.79a15.65,15.65,0,0,1-3.88.32c-.59-.1-1-1.29-1.5-2,.65,0,1.45-.36,1.93-.09a24.61,24.61,0,0,1,3,2.25Z" transform="translate(2220.94 2221.75)"/><path d="M708.39,172.79c-1.47-2.43-2.93-4.86-4.31-7.41.08-.12-.18.24-.18.24,5.44.16,6.44,2.88,4.2,7.49Z" transform="translate(2220.94 2221.75)"/><path d="M699.71,158.2c3.56,1.14,7.06,2.31,4.27,7.32-.08.1.18-.26.1-.14-.53-2.9-.33-6.3-4.38-7.21Z" transform="translate(2220.94 2221.75)"/><path d="M698.26,146.29c4.33,3.5,1.79,7.84,1.44,11.91v0c-.34-4.11-.69-8.21-1-12.35Z" transform="translate(2220.94 2221.75)"/><path d="M1494.15,270.71l-11.64-8.61c-2.1,1.26-4.67,2.16-6.37,3.9q-69.47,71.12-138.75,142.43c-1.36,1.39-2.27,3.21-3.83,5.48,5.75,11.56,17.56,15.49,28,20.3,18.1,8.36,37.1,13.91,57.53,10.45h-.12c-1.82,2.9-4,4.93-7.8,5.2-52.21,3.66-102.35-31.89-116.27-82.2-4.88-17.6-5.33-35.29-2.91-53.37,2.22,29.79,5.85,59,26.31,84.67,3.06-2.17,5.88-3.61,8-5.76q68.57-69.79,137-139.75c.91-.92,1.42-2.23,2.74-4.37-2.37-3.19-5-6.73-7.62-10.26l-.53.47h8.56l-.83-.57,8.68,6.5,19.64,15.47c0,3.51-.09,7-.14,10.53Z" transform="translate(2220.94 2221.75)"/><path d="M1493.87,260.69l-19.64-15.47c-1.53-4-4-6.79-8.68-6.5l.83.57c-5.59-9.34-14.31-12.54-24.65-12.57l.74.49c-5.64-5.78-11.31-3.89-17-.05l.16-.52-24.29-1.2c6.5-1.19,12.64-1.36,18-3.52,9.22-3.74,18.19-3.21,27.14-.35q58.74,18.75,73.39,78.8c1.75,7.18,1.93,14.15-2,21.12-1.81,3.2-1.42,7.66-1.93,11-.48-5.32-1-11.28-1.54-17.25l-.55.23c3.79-4.28,3.69-8.56,0-12.86l.42.68c-1-4.41,1-9.88-4.5-12.7l.52.73c-.08-7-1.57-13.25-8.55-16.7l.58.8C1502.2,269,1497.74,265,1493.87,260.69Z" transform="translate(2220.94 2221.75)"/><path d="M1442.08,230.66l-16.42-4-.16.52,17,.05-.74-.49c0,1.52,0,3,0,4.54Z" transform="translate(2220.94 2221.75)"/><path d="M1502.22,282.62c-4.77-2.56-7.09-6.78-8.07-11.91l-.42.51,8.58,4.18-.58-.8c0,2.86,0,5.71,0,8.57Z" transform="translate(2220.94 2221.75)"/><path d="M1419.06,444.66h10.43c-.06.62-.13,1.25-.19,1.88L1419,444.67S1419.06,444.66,1419.06,444.66Z" transform="translate(2220.94 2221.75)"/><path d="M1510.18,302.73l-3.87-11.81-.57.35,4.54,0-.52-.73q0,6.39,0,12.77Z" transform="translate(2220.94 2221.75)"/><path d="M1383.19,229.59l-1.13-.85a3.66,3.66,0,0,1,1.45-.39c.41.06.76.52,1.14.81Z" transform="translate(2220.94 2221.75)"/><path d="M1512.23,355.32a3.77,3.77,0,0,1,.36,1.44c-.07.41-.53.76-.81,1.14a3.94,3.94,0,0,1-.35-1.44C1511.5,356.05,1512,355.7,1512.23,355.32Z" transform="translate(2220.94 2221.75)"/><path d="M1514.37,315.22q-2.08-6.24-4.19-12.49l-.47.61,4.55-.07-.42-.68q0,6.44,0,12.86Z" transform="translate(2220.94 2221.75)"/><path d="M1458.35,238.82l-8-4-.57.47c3.31.06,6.85-.34,8,4Z" transform="translate(2220.94 2221.75)"/><path d="M1363.72,233.61l-1.4,1.82,1.72.14,0-2.57Z" transform="translate(2220.94 2221.75)"/><path d="M1506.31,290.92c-3.82-1.55-3.88-5-4.09-8.29l-.5.54c4,1.39,4,4.76,4,8.1Z" transform="translate(2220.94 2221.75)"/><path d="M1450.38,234.81l-8.3-4.14-.34.59c3.2.33,6.81-.18,8.07,4Z" transform="translate(2220.94 2221.75)"/><path d="M1364,233l2.2,1.91c-.83-.4-1.66-.8-2.49-1.25C1363.72,233.61,1364,233,1364,233Z" transform="translate(2220.94 2221.75)"/></svg>