<svg xmlns="http://www.w3.org/2000/svg" xmlns:xlink="http://www.w3.org/1999/xlink" viewBox="0 0 802.06 343.5"><defs><style>.cls-1{fill:url(#linear-gradient);}.cls-2{fill:url(#linear-gradient-2);}.cls-3{fill:url(#linear-gradient-3);}.cls-4{fill:url(#linear-gradient-4);}.cls-5{fill:#2163a3;}.cls-6{fill:url(#linear-gradient-5);}.cls-7{fill:#4f5e9b;}.cls-8{fill:url(#linear-gradient-6);}</style><linearGradient id="linear-gradient" x1="179.83" y1="696.21" x2="179.83" y2="1091.5" gradientTransform="translate(63.88 -572.75) rotate(-23.98)" gradientUnits="userSpaceOnUse"><stop offset="0" stop-color="#00a29c" stop-opacity="0.53"/><stop offset="0.25" stop-color="#0f959d" stop-opacity="0.62"/><stop offset="0.73" stop-color="#38739e" stop-opacity="0.85"/><stop offset="1" stop-color="#515e9f"/></linearGradient><linearGradient id="linear-gradient-2" x1="-141.07" y1="553.47" x2="-141.07" y2="948.76" gradientTransform="matrix(-0.91, -0.41, -0.41, 0.91, 883.15, -572.75)" gradientUnits="userSpaceOnUse"><stop offset="0" stop-color="#4e5e9b" stop-opacity="0.57"/><stop offset="0.26" stop-color="#455f9d" stop-opacity="0.65"/><stop offset="0.75" stop-color="#2e62a3" stop-opacity="0.87"/><stop offset="1" stop-color="#2163a7"/></linearGradient><linearGradient id="linear-gradient-3" x1="763.64" y1="-2.45" x2="763.64" y2="344.24" gradientUnits="userSpaceOnUse"><stop offset="0" stop-color="#515e9f"/><stop offset="0.17" stop-color="#47669d" stop-opacity="0.9"/><stop offset="0.5" stop-color="#2d7999" stop-opacity="0.66"/><stop offset="0.96" stop-color="#049993" stop-opacity="0.26"/><stop offset="1" stop-color="#009c92" stop-opacity="0.22"/></linearGradient><linearGradient id="linear-gradient-4" y1="286.15" x2="251.9" y2="286.15" gradientUnits="userSpaceOnUse"><stop offset="0" stop-color="#272944"/><stop offset="1" stop-color="#4f5e9b"/></linearGradient><linearGradient id="linear-gradient-5" x1="386.03" y1="-2.8" x2="491.4" y2="344.82" gradientUnits="userSpaceOnUse"><stop offset="0" stop-color="#005f66"/><stop offset="1" stop-color="#4f5e9b"/></linearGradient><linearGradient id="linear-gradient-6" x1="630.31" y1="-2.45" x2="630.31" y2="344.24" gradientTransform="matrix(1, 0, 0, 1, 0, 0)" xlink:href="#linear-gradient"/></defs><g id="Layer_2" data-name="Layer 2"><g id="Layer_1-2" data-name="Layer 1"><polygon class="cls-1" points="610.67 343.45 496.17 0.05 573.07 0.05 687.57 343.45 610.67 343.45"/><polygon class="cls-2" points="687.57 343.45 802.07 0.05 725.17 0.05 610.67 343.45 687.57 343.45"/><rect class="cls-3" x="725.21" y="0.05" width="76.86" height="343.4"/><polygon id="Shape" class="cls-4" points="0 228.9 251.9 228.9 251.9 343.4 114.5 343.4 0 228.9"/><polygon id="Shape-2" data-name="Shape" class="cls-5" points="0 0 0 229 114.5 343.5 114.5 0.1 0 0"/><polygon id="Shape-3" data-name="Shape" class="cls-6" points="324.42 0 438.92 343.4 553.42 343.4 438.92 0 324.42 0"/><polygon id="Shape-4" data-name="Shape" class="cls-7" points="209.92 343.4 324.42 0 438.92 0 324.42 343.4 209.92 343.4"/><line class="cls-8" x1="573.06" y1="0.05" x2="687.56" y2="343.45"/></g></g></svg>