<svg id="Layer_1" data-name="Layer 1" xmlns="http://www.w3.org/2000/svg" viewBox="0 0 875.37 350.21"><defs><style>.cls-1{fill:#fff;}</style></defs><title>leo</title><path class="cls-1" d="M-930.19,349.83q0,115.6,0,231.21c-.45,3,2.52,4.68,4.26,6.62q56.24,56.05,112.32,112.27c.12-116.66-.19-233.32.1-350C-852.41,349.66-891.3,349.89-930.19,349.83Zm330.28,0c-11.44,35.24-23.4,70.31-35,105.49q-40.71,122.2-81.42,244.42c38.91,0,77.83.06,116.74,0C-560.9,583-521.74,466.49-483,349.8-522,349.79-560.95,349.73-599.91,349.83Zm206,0q56.31,167.85,112.76,335.65c1.56-4.17,2.87-8.43,4.19-12.68q-54-161.53-108.45-323C-388.22,349.82-391,349.81-393.88,349.83Zm18.73,0q51.5,153.85,103.24,307.64c1.55-4.34,3.89-8.77,4.08-13.35Q-317,496.95-366.59,349.88C-369.45,349.81-372.3,349.81-375.15,349.82Zm18.73,0q46.92,139.86,94,279.67c1.58-4.08,2.91-8.25,4.3-12.39q-44.3-132.24-88.76-264.42a11.94,11.94,0,0,0-1.33-2.79A72.37,72.37,0,0,0-356.42,349.85Zm18.69,0c28.17,84.15,56.63,168.22,84.67,252.42,1.13-4.47,3.31-8.64,4.1-13.18a47.16,47.16,0,0,0-1.94-6.29q-39.21-116.46-78.32-233Q-333.48,349.81-337.73,349.84Zm18.73,0q37.61,112.21,75.34,224.4c1.1-3.67,2.47-7.25,3.65-10.89,1.13-2.51-.49-5-1.16-7.38-23.19-68.68-46.09-137.47-69.33-206.13C-313.34,349.81-316.17,349.82-319,349.83Zm18.72,0q32.94,98.28,66,196.52c1.05-4.73,4.13-9.16,3.86-14.07Q-259.79,444.62-289.29,357c-.89-2.36-1.31-5-2.87-7A71,71,0,0,0-300.28,349.84Zm144.13,0q-58.93,174.92-117.58,349.91l8.51,0q59-174.9,117.61-349.93Zm18.75,0c-.53,1.44-1,2.88-1.55,4.33q-58,172.82-116,345.6h8.5q59-174.9,117.59-349.9Zm7.93,31.92q-53.4,159-106.8,318l8.52,0q58.92-174.9,117.57-349.89c-2.8,0-5.59,0-8.37-.12C-122.51,360.28-125.8,371.07-129.47,381.73Zm29.51-31.9Q-159,524.7-217.59,699.74c2.9,0,5.82,0,8.73-.12q58.49-175,117.42-349.81Zm18.7,0q-58.95,174.9-117.59,349.9l8.5,0q59-174.88,117.6-349.92C-75.59,349.82-78.43,349.81-81.26,349.82Zm7.16,34.25q-53,157.83-106,315.67h8.51Q-114.29,530-57.43,360.07a34.5,34.5,0,0,0,2.54-10.24l-7.59,0C-66.54,361.16-70.19,372.66-74.1,384.07Zm-406.15-25.28q-28.69,86-57.35,172.07c-1.45,3.95.94,7.82,2,11.56q26.32,78.66,52.48,157.38,58.39,0,116.77,0-39-116.85-77.93-233.74C-456.37,430.33-467.91,394.42-480.25,358.79ZM-808,583.14V699.8c28.71-.08,57.43.18,86.14-.13,5.37-17.74,11.69-35.19,17.37-52.83q10.66-31.85,21.27-63.7Z" transform="translate(930.25 -349.72)"/><path class="cls-1" d="M-930.19,349.83c38.89.06,77.78-.17,116.66.12-.29,116.66,0,233.32-.1,350q-56.24-56.07-112.32-112.27c-1.74-1.94-4.71-3.59-4.26-6.62Q-930.15,465.44-930.19,349.83Z" transform="translate(930.25 -349.72)"/><path class="cls-1" d="M-599.91,349.83c39-.1,77.91,0,116.87,0C-521.74,466.49-560.9,583-599.61,699.7c-38.91.1-77.83,0-116.74,0q40.61-122.25,81.42-244.42C-623.31,420.14-611.35,385.07-599.91,349.83Z" transform="translate(930.25 -349.72)"/><path class="cls-1" d="M-393.88,349.83c2.83,0,5.66,0,8.5,0q54.33,161.45,108.45,323c-1.32,4.25-2.63,8.51-4.19,12.68Q-337.64,517.7-393.88,349.83Z" transform="translate(930.25 -349.72)"/><path class="cls-1" d="M-375.15,349.82c2.85,0,5.7,0,8.56.06Q-317.23,497-267.83,644.11c-.19,4.58-2.53,9-4.08,13.35Q-323.4,503.6-375.15,349.82Z" transform="translate(930.25 -349.72)"/><path class="cls-1" d="M-356.42,349.85a72.37,72.37,0,0,1,8.2.07,11.94,11.94,0,0,1,1.33,2.79q44.31,132.23,88.76,264.42c-1.39,4.14-2.72,8.31-4.3,12.39Q-309.67,489.77-356.42,349.85Z" transform="translate(930.25 -349.72)"/><path class="cls-1" d="M-337.73,349.84q4.25,0,8.51,0,39.32,116.43,78.32,233a47.16,47.16,0,0,1,1.94,6.29c-.79,4.54-3,8.71-4.1,13.18C-281.1,518.06-309.56,434-337.73,349.84Z" transform="translate(930.25 -349.72)"/><path class="cls-1" d="M-319,349.83c2.83,0,5.66,0,8.5,0,23.24,68.66,46.14,137.45,69.33,206.13.67,2.38,2.29,4.87,1.16,7.38-1.18,3.64-2.55,7.22-3.65,10.89Q-281.29,462-319,349.83Z" transform="translate(930.25 -349.72)"/><path class="cls-1" d="M-300.28,349.84a71,71,0,0,1,8.12.09c1.56,2,2,4.68,2.87,7q29.34,87.67,58.84,175.32c.27,4.91-2.81,9.34-3.86,14.07Q-267.23,448.08-300.28,349.84Z" transform="translate(930.25 -349.72)"/><path class="cls-1" d="M-156.15,349.81h8.54q-58.87,174.95-117.61,349.93l-8.51,0Q-214.92,524.78-156.15,349.81Z" transform="translate(930.25 -349.72)"/><path class="cls-1" d="M-137.4,349.81l8.5,0q-58.84,174.93-117.59,349.9H-255q57.94-172.82,116-345.6C-138.45,352.69-137.93,351.25-137.4,349.81Z" transform="translate(930.25 -349.72)"/><path class="cls-1" d="M-129.47,381.73c3.67-10.66,7-21.45,10.92-32,2.78.08,5.57.11,8.37.12Q-169,524.79-227.75,699.73l-8.52,0Q-182.94,540.71-129.47,381.73Z" transform="translate(930.25 -349.72)"/><path class="cls-1" d="M-100,349.83l8.52,0q-58.69,174.92-117.42,349.81c-2.91.13-5.83.13-8.73.12Q-158.67,524.81-100,349.83Z" transform="translate(930.25 -349.72)"/><path class="cls-1" d="M-81.26,349.82c2.83,0,5.67,0,8.51,0q-58.78,175-117.6,349.92l-8.5,0Q-140,524.79-81.26,349.82Z" transform="translate(930.25 -349.72)"/><path class="cls-1" d="M-74.1,384.07c3.91-11.41,7.56-22.91,11.62-34.27l7.59,0a34.5,34.5,0,0,1-2.54,10.24q-57.18,169.82-114.19,339.68h-8.51Q-127.09,541.91-74.1,384.07Z" transform="translate(930.25 -349.72)"/><path class="cls-1" d="M-480.25,358.79c12.34,35.63,23.88,71.54,35.95,107.26q38.91,116.9,77.93,233.74-58.38,0-116.77,0-26.25-78.69-52.48-157.38c-1-3.74-3.43-7.61-2-11.56Q-508.93,444.84-480.25,358.79Z" transform="translate(930.25 -349.72)"/><path class="cls-1" d="M-808,583.14h124.78q-10.62,31.86-21.27,63.7c-5.68,17.64-12,35.09-17.37,52.83-28.71.31-57.43.05-86.14.13Z" transform="translate(930.25 -349.72)"/></svg>