<svg xmlns="http://www.w3.org/2000/svg" xmlns:xlink="http://www.w3.org/1999/xlink" viewBox="0 0 1000 640"><defs><path d="M110 0C80 0 50 20 30 140L0 320h190l30-180C240 20 270 0 300 0" id="a"/></defs><use transform="matrix(-1 0 0 1 860 0)" xlink:href="#a" fill="#2980b9"/><path d="M715.714 600L700 500l-30-180h190l30 180 15.714 100C910 630 890 640 872 640H764c-30 0-44-10-48.286-40z" fill="#2980b9"/><use transform="translate(450)" xlink:href="#a" fill="#3498db"/><path d="M280 640h180V440H200c-.243 20.208 0 89.892 0 120 0 60 20 80 80 80z" fill="#2980b9"/><use xlink:href="#a" transform="rotate(180 320 320)" fill="#3498db"/><path d="M0 40v320c0 60 20 100 60 140l90 90c40 40 71.43 50 130 50-60 0-80-20-80-80V40c0-30-10-40-40-40H40C10 0 0 10 0 40z" fill="#3498db"/></svg>